<svg id="Layer_1" data-name="Layer 1" xmlns="http://www.w3.org/2000/svg" viewBox="0 0 500 500"><defs></defs><title>Icon EC</title><path class="cls-1" d="M250.79,90.06c12.75,24.59,25.42,47.7,36.86,71.42,12.73,26.4,22.24,54,27.42,83,8.75,49.1-5.64,90.37-41.41,124.49a146.52,146.52,0,0,1-19.72,15.54c-2.14,1.43-6.9,1.54-9,.11-33.13-23.05-55.95-53-62.25-94-4.28-27.92,1.37-54.58,9.6-80.9,12.87-41.21,32.4-79.31,55-115.91A48.92,48.92,0,0,1,250.79,90.06Z"/><path class="cls-1" d="M264.38,387c26.54-18.33,46.94-40.76,59.75-69.59a128.43,128.43,0,0,0,11.47-48.48c.15-4.93,2.19-6.8,6.17-8.54,24.11-10.5,49.44-16.94,75.28-20.56,24-3.37,48.36-4.58,72.56-6.67,2.77-.24,5.58,0,10.39,0-8.48,16-15.7,30.74-23.9,44.91-19.89,34.4-41.71,67.47-72.77,93.08-41.29,34-87.07,36.94-135.59,18.2A22,22,0,0,1,264.38,387Z"/><path class="cls-1" d="M234,389.45c-13.5,3.29-26.83,7.63-40.52,9.66-53.42,7.95-92.92-16.41-125.77-55.57-27-32.16-48-68-66.09-105.69C1.11,236.73.8,235.5,0,233.24c8.49,0,16.34-.78,24,.15,27.19,3.3,54.52,6.06,81.37,11.23,17.78,3.43,34.89,10.47,52.16,16.32,2.28.78,5.15,4,5.3,6.28,3,48.28,26.13,85.18,63.75,114,2.29,1.75,4.6,3.47,6.89,5.21C233.65,387.45,233.84,388.45,234,389.45Z"/><path class="cls-1" d="M162.34,240.26C145.64,235,128.2,229.79,111,223.8c-2.45-.86-5-5.47-5.1-8.43-.9-26.18-1.33-52.38-1.72-78.57,0-3.32.94-6.66,1.71-11.74,10,6.23,19.5,11.5,28.32,17.69,14.15,9.94,28,20.37,41.67,30.9,1.73,1.33,3.28,4.85,2.77,6.8C173.46,200.54,167.8,220.51,162.34,240.26Z"/><path class="cls-1" d="M392.47,125.84c.8,2.82,2,5,2,7.22-.05,23.06-.28,46.13-.5,69.19,0,1.3-.38,2.59-.51,3.89-1.64,16.56-1.72,16.29-17.05,21.06-13.63,4.24-27.05,9.17-41.06,14-1.35-6.87-2.45-14-4.21-20.94-2.87-11.37-5.62-22.83-9.5-33.87-2.41-6.84-2.27-11.16,4.3-15.56,20-13.43,39.58-27.5,59.39-41.24A65.91,65.91,0,0,1,392.47,125.84Z"/></svg>