<?xml version="1.0" encoding="utf-8"?>
<!-- Generator: Adobe Illustrator 24.0.3, SVG Export Plug-In . SVG Version: 6.00 Build 0)  -->
<svg version="1.1" id="Layer_1" xmlns="http://www.w3.org/2000/svg" xmlns:xlink="http://www.w3.org/1999/xlink" x="0px" y="0px"
	 viewBox="0 0 512 512" style="enable-background:new 0 0 512 512;" xml:space="preserve">
<g>
	<path d="M279.8,115.1L269.3,66L0,123.5l57.4,269.3l115.2-24.6l-0.7,2.5L436.8,446L512,181.1L279.8,115.1z M269.9,106.5l1.3,6.2
		l-13-3.7L269.9,106.5z M263.3,75.4l5,23.4L14.4,153l-5-23.4L263.3,75.4z M57.4,355L16,160.7l229.4-48.9L184,328L57.4,355z
		 M185.9,336.3L185.9,336.3l-0.2,0L185.9,336.3z M175,359.7L63.5,383.5l-4.4-20.8l122.5-26.1L175,359.7z M431.4,436.2l-247.7-70.3
		l-2-0.6l0.9-3.2l4.9-17.2l24.4,6.9l8.1,2.3l8.1,2.3l209.1,59.4L431.4,436.2z M439.3,408.2l-194.8-55.3l-8.1-2.3l-8.1-2.3l-38.7-11
		l0.4-1.3h0l0.4-1.3l1.2-4.3l1.2-4.3l51.1-179.9l36.7,10.4l4.3,1.2l4.3,1.2l204.4,58L439.3,408.2z M287.3,150.4l-4.3-1.2l-4.3-1.2
		l-32.7-9.3l6.5-23.1l20.5,5.8l4.3,1.2l4.3,1.2l220.6,62.6l-6.5,23.1L287.3,150.4z"/>
</g>
</svg>
