<svg id="Layer_1" data-name="Layer 1" xmlns="http://www.w3.org/2000/svg" viewBox="0 0 500 500"><defs><style>.cls-1{fill:#818281;}</style></defs><title>Untitled-2</title><path class="cls-1" d="M455.31,250.19h-.79c0-21.18.79-42.13-.21-62.86-.57-21.4-1.35-42.68-4.16-63.75-5.37-38.09-30.8-64.31-68.23-72.82-22.85-4.93-45.93-4.82-69.12-4.93-41.8-.68-83.48-.68-125.38,0-21.4.33-43,.89-64.2,4.37C87.7,55.8,63.39,76,52.63,111.26c-6.5,21-6.28,42.8-6.84,64.31-.44,34.06-.89,68.35-.44,102.3.44,30.81.67,61.73,3.7,92.32,3.92,40.67,27.11,69.46,68.79,79.21,22.86,5.38,46.38,5,69.58,5.38,41.68.34,83.13.56,124.82-.11,21.62-.34,43.58-1.12,64.87-4.6,36-5.6,60.61-26.33,70.25-62.07a141.66,141.66,0,0,0,5.49-36.07c1.46-33.84,1.67-67.79,2.46-101.74M250.05,0C284,.45,318.17.67,352.23,1.79c31.49,1.12,62.07,7.29,88.29,25.88,31,21.85,48.29,52.22,54.68,89.19,4.59,27.34,4.25,55,4.48,82.58.11,43,.22,86.27-.45,129.52-.34,26.33-1.23,52.77-10.08,78.09-17,48.4-50.87,77.31-100.62,86.83-22.29,4.26-45.26,5.16-68,5.6-49.74.79-99.49.57-149.35,0-26.33-.44-52.88-1.23-78.09-10.08-48.29-17-76.53-51.31-87.29-100.61C1,366.38.75,343.41.64,320.67.08,271,.08,221.17.75,171.54,1,145,1.88,118.65,10.84,93.22,27.76,45,62,16.81,111.34,6.16c22.64-4.82,45.72-5,68.57-5.49,23.41-.33,46.72,0,70.14,0Z"/><path class="cls-1" d="M281.86,500V312.67c0-3.59,0-3.59,3.69-3.59h55.69c2.35,0,3.25-.67,3.36-2.91,3.13-22,6-44.15,9.08-66.22.56-3.47.44-3.59-3.14-3.59H285.33c-3.47,0-3.47,0-3.47-3.47V188c0-2.69.11-5.38.33-8.18,1.8-14,8.74-21.62,22.75-24.31a51.35,51.35,0,0,1,10.86-1.12h36.53c4.14,0,4.14,0,4.14-4.37v-8.74c0-16.36,0-32.6.12-49,0-2.13-.56-3.14-2.8-3.25-3.14-.23-6.06-.45-9.19-.79C334.29,87.46,324,87,313.68,86.68c-13.9-.68-27.79-.34-41.46,3-27.67,7.06-47.29,23.19-58,50.2a108.63,108.63,0,0,0-7.28,40.44c-.34,17.37-.11,34.62-.11,52,0,4,0,4-4,4h-55.9c-3.37,0-3.48.12-3.48,3.37v65.88c0,3.47.11,3.47,3.36,3.47h56.92c2.91,0,3.14.11,3.25,3.25V500Z"/></svg>