<svg id="Layer_1" data-name="Layer 1" xmlns="http://www.w3.org/2000/svg" viewBox="0 0 500 500"><defs></defs><title>Untitled-2</title><path class="cls-1" d="M249.53,468.11c-9.33,0-18.37-4.6-33.89-13.74-74.29-43.62-134-99.64-177.6-166.54C19,258.64,6.87,228.09,1.9,197.07-10.56,118.8,39.43,47.44,115.76,34.6c53.6-8.91,99.78,8.13,134.19,49.63a139.81,139.81,0,0,1,50-39.12c39.75-18.61,85-17.54,124.32,3,39.12,20.36,65.88,56.63,73.4,99.54,6.06,34.44.11,70-18.19,108.76-19,40.17-47.4,77.67-89.5,118-36.45,34.94-69.75,60.31-104.79,79.78C268.51,463.49,258.89,468.11,249.53,468.11ZM143.65,59a141.74,141.74,0,0,0-23.45,2c-61.64,10.37-102,68.28-91.85,131.84,4.42,27.7,14.92,54,32.12,80.4,41.28,63.38,98,116.55,168.71,158.08,20.43,12,20.43,12.05,40.92.63,35.09-19.5,66.64-43.57,101.42-76.91,39.64-38,66.27-73,83.81-110.12,16.07-34,21.16-63.48,16-92.69C465.28,117.6,443.64,88.28,412,71.79a113,113,0,0,0-100.61-2.43c-20.47,9.56-36.77,24.15-49.89,44.58l-10.61,16.54-14.19-19.7C212,76.08,181.38,59,143.65,59Z"/></svg>