<?xml version="1.0" encoding="utf-8"?>
<!-- Generator: Adobe Illustrator 24.0.3, SVG Export Plug-In . SVG Version: 6.00 Build 0)  -->
<svg version="1.1" id="Layer_1" xmlns="http://www.w3.org/2000/svg" xmlns:xlink="http://www.w3.org/1999/xlink" x="0px" y="0px"
	 viewBox="0 0 512 512" style="enable-background:new 0 0 512 512;" xml:space="preserve">
<g>
	<path d="M192.8,327.5c-8.7,0-15.6,6.3-17.2,14.5c-0.2,1.2-0.7,2.2-0.7,3.5c0,1.2,0.5,2.3,0.7,3.5c1.7,8.2,8.6,14.5,17.2,14.5
		s15.6-6.3,17.2-14.5c0.2-1.2,0.7-2.2,0.7-3.5c0-1.2-0.5-2.3-0.7-3.5C208.4,333.8,201.5,327.5,192.8,327.5z M203.2,348.9
		c-1.5,4.4-5.5,7.6-10.3,7.6c-4.9,0-8.9-3.2-10.3-7.6c-0.4-1.1-0.7-2.2-0.7-3.5c0-1.2,0.3-2.4,0.7-3.5c1.5-4.4,5.5-7.6,10.3-7.6
		c4.9,0,8.9,3.2,10.3,7.6c0.4,1.1,0.7,2.2,0.7,3.5C203.9,346.6,203.5,347.8,203.2,348.9z"/>
	<path d="M439.8,186.5h-59.5v-71.5H120.5H85.2h-51v6.9h51V166H0v6.9h85.2v32.7H47.4v6.9h37.8v136.3h56.3c1.8,26.9,24,48.2,51.3,48.2
		c27.3,0,49.5-21.4,51.3-48.2h132.6c1.8,26.9,24,48.2,51.3,48.2c27.3,0,49.5-21.4,51.3-48.2H512v-60.5L439.8,186.5z M237.3,348.9
		c-1.8,23-20.9,41.3-44.4,41.3s-42.6-18.3-44.4-41.3c-0.1-1.2-0.3-2.3-0.3-3.5c0-1.2,0.3-2.3,0.3-3.5c1.8-23,20.9-41.3,44.4-41.3
		s42.6,18.3,44.4,41.3c0.1,1.2,0.3,2.3,0.3,3.5C237.6,346.6,237.3,347.7,237.3,348.9z M373.4,342H244.2c-1.8-26.8-24-48.2-51.3-48.2
		c-27.3,0-49.5,21.4-51.3,48.2H92.1V212.5h85.2v-6.9H92.1v-32.7h44.8V166H92.1v-44.2h28.4h252.9V342z M380.3,193.4h55.9l65.6,92.6
		H380.3V193.4z M472.5,348.9c-1.8,23-20.9,41.3-44.4,41.3c-24.7,0-44.8-20.1-44.8-44.8c0-24.7,20.1-44.7,44.8-44.7
		c23.5,0,42.6,18.3,44.4,41.3c0.1,1.2,0.3,2.3,0.3,3.5C472.8,346.6,472.6,347.7,472.5,348.9z M505.1,342h-25.7
		c-1.8-26.8-24-48.2-51.3-48.2c-21.5,0-40,13.3-47.7,32v-32.9h124.8V342z"/>
	<path d="M428.1,327.5c-9.9,0-17.9,8-17.9,17.9c0,9.9,8,17.9,17.9,17.9c9.9,0,17.9-8,17.9-17.9C446,335.5,438,327.5,428.1,327.5z
		 M428.1,356.4c-6.1,0-11-4.9-11-11c0-6.1,4.9-11,11-11c6.1,0,11,4.9,11,11C439.1,351.5,434.1,356.4,428.1,356.4z"/>
</g>
</svg>
