<?xml version="1.0" ?><svg height="24px" version="1.1" viewBox="0 0 24 24" width="24px" xmlns="http://www.w3.org/2000/svg" xmlns:sketch="http://www.bohemiancoding.com/sketch/ns" xmlns:xlink="http://www.w3.org/1999/xlink"><title/><desc/><defs/><g fill="none" fill-rule="evenodd" id="miu" stroke="none" stroke-width="1"><g id="Artboard-1" transform="translate(-791.000000, -263.000000)"><g id="slice" transform="translate(215.000000, 119.000000)"/><path d="M812.921906,265.133586 L803.52106,264.453813 L792.724788,275.250085 C792.533878,275.440996 792.537282,275.753927 792.732015,275.94866 L802.632815,285.849461 C802.827717,286.044362 803.143222,286.044855 803.33139,285.856687 L814.127662,275.060415 L813.447889,265.659569 C813.4283,265.388666 813.187241,265.152772 812.921906,265.133586 Z M812.444408,266.677775 C812.418676,266.404882 812.173129,266.162473 811.9037,266.137068 L803.997503,265.391584 L794.123504,275.265583 C793.932475,275.456613 793.937165,275.771024 794.132334,275.966193 L802.615283,284.449141 C802.811189,284.645048 803.122403,284.65146 803.315893,284.457971 L813.189891,274.583972 L812.444408,266.677775 L812.444408,266.677775 Z M806.324831,272.256644 C807.10588,273.037693 808.35814,273.051763 809.121832,272.288071 C809.885523,271.524379 809.871453,270.27212 809.090405,269.491071 C808.309356,268.710022 807.057096,268.695952 806.293404,269.459644 C805.529712,270.223336 805.543783,271.475595 806.324831,272.256644 L806.324831,272.256644 Z M807.016225,271.565251 C807.406749,271.955775 808.032879,271.96281 808.414725,271.580964 C808.796571,271.199118 808.789536,270.572989 808.399011,270.182464 C808.008487,269.79194 807.382357,269.784905 807.000511,270.166751 C806.618665,270.548597 806.6257,271.174727 807.016225,271.565251 L807.016225,271.565251 Z" fill="#000000" id="common-tag-2-general-price-outline-stroke"/></g></g></svg>