<svg id="Layer_1" data-name="Layer 1" xmlns="http://www.w3.org/2000/svg" viewBox="0 0 500 500"><defs><style>.cls-1{fill:#ac1f28;}</style></defs><title>Untitled-2</title><path class="cls-1" d="M250.58,98.77c15-23.42,34.1-40.79,58.51-52.2,79.32-37.1,173.6,11.79,188.69,97.75,6.61,37.63-2.16,72.6-18.06,106.25-22,46.49-54.61,85.05-91.39,120.32-32.76,31.4-67.91,59.91-107.66,82-30.77,17.11-30.12,17.6-59.4.4C147.66,410.06,85.51,354,38.64,282.1c-18-27.59-30.75-57.46-36-90.28C-9.29,117,39.33,48.68,111.14,36.63c57.4-9.63,103,11,136.71,58.32Z"/></svg>