<svg height="512pt" viewBox="0 0 512 512" width="512pt" xmlns="http://www.w3.org/2000/svg"><path d="m175 80h-16.765625c-1.625-6.84375-4.324219-13.273438-7.925781-19.097656l11.867187-11.863282c5.855469-5.859374 5.855469-15.355468 0-21.214843-5.859375-5.855469-15.355469-5.855469-21.214843 0l-11.863282 11.867187c-5.824218-3.601562-12.253906-6.300781-19.097656-7.925781v-16.765625c0-8.285156-6.714844-15-15-15s-15 6.714844-15 15v16.765625c-6.84375 1.625-13.273438 4.324219-19.097656 7.925781l-11.863282-11.867187c-5.859374-5.855469-15.355468-5.855469-21.214843 0-5.855469 5.859375-5.855469 15.355469 0 21.214843l11.867187 11.863282c-3.601562 5.824218-6.300781 12.253906-7.925781 19.097656h-16.765625c-8.285156 0-15 6.714844-15 15s6.714844 15 15 15h16.765625c1.625 6.84375 4.324219 13.273438 7.925781 19.097656l-11.867187 11.863282c-5.855469 5.859374-5.855469 15.355468 0 21.214843 2.929687 2.929688 6.769531 4.394531 10.605469 4.394531 3.839843 0 7.679687-1.464843 10.605468-4.394531l11.867188-11.867187c5.820312 3.601562 12.253906 6.300781 19.097656 7.925781v16.765625c0 8.285156 6.714844 15 15 15 8.28125 0 15-6.714844 15-15v-16.765625c6.84375-1.625 13.273438-4.324219 19.09375-7.925781l11.867188 11.867187c2.929687 2.929688 6.769531 4.394531 10.605468 4.394531 3.839844 0 7.679688-1.464843 10.605469-4.394531 5.859375-5.859375 5.859375-15.355469 0-21.214843l-11.863281-11.863282c3.601562-5.824218 6.300781-12.253906 7.921875-19.097656h16.769531c8.285156 0 15-6.714844 15-15s-6.714844-15-15-15zm-80 50c-19.300781 0-35-15.699219-35-35s15.699219-35 35-35 35 15.699219 35 35-15.699219 35-35 35zm0 0"/><path d="m497 150h-280c-8.285156 0-15 6.714844-15 15v210c0 8.285156 6.714844 15 15 15h95v33.507812c-29.34375 5.980469-52.511719 29.148438-58.492188 58.492188h-36.507812c-8.285156 0-15 6.714844-15 15s6.714844 15 15 15h280c8.285156 0 15-6.714844 15-15s-6.714844-15-15-15h-36.507812c-5.980469-29.34375-29.148438-52.511719-58.492188-58.492188v-33.507812h95c8.285156 0 15-6.714844 15-15v-210c0-8.285156-6.714844-15-15-15zm-85 210h-40v-40h40zm-180-110h40v40h-40zm70 0h40v40h-40zm110 40h-40v-40h40zm30-40h40v40h-40zm40-30h-40v-40h40zm-70 0h-40v-40h40zm-70 0h-40v-40h40zm-110-40h40v40h-40zm0 140h40v40h-40zm70 0h40v40h-40zm127.429688 162h-144.859376c6.191407-17.460938 22.875-30 42.429688-30h60c19.554688 0 36.238281 12.539062 42.429688 30zm-57.429688-60h-30v-32h30zm110-62h-40v-40h40zm0 0"/></svg>