<svg height="512pt" viewBox="-4 0 512 512" width="512pt" xmlns="http://www.w3.org/2000/svg"><path d="m504.371094 512h-504.371094v-14.980469c0-48.964843 9.746094-96.625 28.960938-141.660156 19.21875-45.035156 46.886718-85.046875 82.238281-118.925781l84.445312-80.929688h115.082031l83.8125 81.171875c34.9375 33.835938 62.269532 73.699219 81.242188 118.480469 18.96875 44.785156 28.589844 92.152344 28.589844 140.789062zm0 0" fill="#48578a"/><path d="m314.171875 129.824219h-122.003906l-50.925781-108h23.625c4.820312 0 6.679687-1.59375 11.835937-6.640625 6.183594-6.046875 15.523437-15.183594 32.785156-15.183594 17.265625 0 26.605469 9.136719 32.785157 15.183594 5.15625 5.046875 7.015624 6.640625 11.832031 6.640625 4.820312 0 6.679687-1.59375 11.839843-6.640625 6.183594-6.046875 15.523438-15.183594 32.785157-15.183594 17.265625 0 26.605469 9.136719 32.789062 15.183594 5.15625 5.042968 7.019531 6.640625 11.835938 6.640625h24.148437zm0 0" fill="#48578a"/><path d="m475.78125 355.160156c-18.96875-44.785156-46.304688-84.648437-81.242188-118.484375l-83.8125-81.171875h-57.503906v356.496094h251.148438v-16.054688c0-48.636718-9.617188-96.003906-28.589844-140.785156zm0 0" fill="#2d3c72"/><path d="m343.355469 21.824219c-4.816407 0-6.675781-1.59375-11.835938-6.640625-6.179687-6.046875-15.523437-15.183594-32.789062-15.183594-17.261719 0-26.601563 9.136719-32.785157 15.183594-5.160156 5.042968-7.019531 6.640625-11.835937 6.640625-.308594 0-.601563-.007813-.886719-.019531v108.015624h60.949219l53.332031-107.996093zm0 0" fill="#2d3c72"/><path class="green_fill" d="m192.167969 129.824219h122.003906v29.011719h-122.003906zm0 0" fill="#fc657d"/><path class="green_fill" d="m253.222656 129.824219h60.949219v29.011719h-60.949219zm0 0" fill="#e33a53"/><path class="green_fill" d="m337.566406 363.988281-17.351562-30.371093-30.371094 17.355468 6.996094 12.25c-7.011719 17.441406-24.179688 29.5625-43.734375 29.5625-13.941407 0-27.085938-6.132812-36.058594-16.824218l-22.949219 19.257812c14.683594 17.492188 36.191406 27.527344 59.007813 27.527344 33.371093 0 62.5-21.609375 72.949219-52.175782zm0 0" fill="#f2f2fc"/><path class="green_fill" d="m206.339844 340.601562c2.566406-23.535156 22.558594-41.917968 46.765625-41.917968 19.242187 0 36.363281 11.519531 43.609375 29.339844l27.75-11.285157c-11.859375-29.164062-39.871094-48.011719-71.359375-48.011719-41.035157 0-74.667969 32.261719-76.886719 72.753907l-9.414062 10.121093 25.613281 23.824219 23.824219-25.613281zm0 0" fill="#f2f2fc"/><g fill="#d8d8fb"><path class="green_fill" d="m320.214844 333.617188-30.375 17.355468 7 12.25c-7 17.40625-24.113282 29.511719-43.617188 29.558594v29.960938c33.320313-.050782 62.394532-21.640626 72.832032-52.175782l11.511718-6.578125zm0 0"/><path class="green_fill" d="m253.222656 268.726562v29.960938c19.195313.046875 36.257813 11.550781 43.492188 29.335938l27.75-11.285157c-11.84375-29.128906-39.800782-47.964843-71.242188-48.011719zm0 0"/></g></svg>