<?xml version="1.0" encoding="utf-8"?>
<!-- Generator: Adobe Illustrator 23.0.3, SVG Export Plug-In . SVG Version: 6.00 Build 0)  -->
<svg version="1.1" id="Layer_1" xmlns="http://www.w3.org/2000/svg" xmlns:xlink="http://www.w3.org/1999/xlink" x="0px" y="0px"
	 viewBox="0 0 500 500" style="enable-background:new 0 0 500 500;" xml:space="preserve">
<style type="text/css">
	.st0{fill:#818281;}
</style>
<title>Untitled-2</title>
<g id="XMLID_138_">
	<path id="XMLID_142_" class="st0" d="M486.8,86.5c-6.4-16.3-14.9-30.1-28.8-43.9c-13.9-13.8-27.8-22.2-44.2-28.6
		c-15.8-6.1-34.2-10.3-60.6-11.5C326.5,1.4,318,1,250,1s-76.5,0.2-103.1,1.5C120.2,3.7,102.1,7.9,86.2,14
		C69.8,20.4,55.9,28.8,42,42.6S19.6,70.2,13.2,86.5c-6.2,15.7-10.4,33.9-11.6,60.2C0.5,173.1,0.1,181.5,0.1,249s0.2,75.9,1.5,102.3
		c1.2,26.4,5.4,44.5,11.6,60.2c6.4,16.3,14.9,30.1,28.8,43.9c13.9,13.8,27.8,22.2,44.2,28.6c15.8,6.1,34.2,10.3,60.6,11.5
		c26.6,1.1,35.1,1.5,103.1,1.5s76.5-0.2,103.1-1.5c26.6-1.1,44.8-5.4,60.6-11.5c16.4-6.3,30.3-14.8,44.2-28.6
		c13.9-13.8,22.4-27.6,28.8-43.9c6.2-15.7,10.4-33.9,11.6-60.2c1.2-26.4,1.5-34.9,1.5-102.3s-0.2-75.9-1.5-102.3
		C497.2,120.2,492.9,102.2,486.8,86.5z M453.3,349.2c-1.2,24.1-5.2,37.4-8.7,46c-4.4,11.5-10,19.9-18.7,28.6
		c-8.7,8.6-17,14-28.8,18.6c-8.9,3.4-22,7.5-46.3,8.6c-26.5,1.1-34.2,1.5-101,1.5s-74.7-0.2-101-1.5c-24.3-1.1-37.7-5.2-46.3-8.6
		c-11.6-4.4-20.1-10-28.8-18.6S59.6,406.9,55,395.2c-3.5-8.8-7.5-21.8-8.7-46c-1.2-26.3-1.5-34.1-1.5-100.2s0.2-74.2,1.5-100.2
		c1.2-24.1,5.2-37.4,8.7-46c4.4-11.5,10-19.9,18.7-28.6s17-14,28.8-18.6c8.9-3.4,22-7.5,46.3-8.6c26.5-1.1,34.4-1.5,101-1.5
		s74.7,0.2,101,1.5c24.3,1.1,37.7,5.2,46.3,8.6c11.6,4.4,20.1,10,28.8,18.6c8.7,8.6,14.1,16.9,18.7,28.6c3.5,8.8,7.5,21.8,8.7,46
		c1.2,26.3,1.5,34.1,1.5,100.2S454.5,323.2,453.3,349.2z"/>
	<path id="XMLID_145_" class="st0" d="M249.8,121.6c-70.9,0-128.4,57.1-128.4,127.4s57.5,127.4,128.4,127.4S378.2,319.3,378.2,249
		S320.7,121.6,249.8,121.6z M249.8,331.8c-46,0-83.4-37-83.4-82.8c0-45.6,37.3-82.8,83.4-82.8s83.4,37,83.4,82.8
		C333.2,294.6,295.8,331.8,249.8,331.8z"/>
	<ellipse id="XMLID_143_" class="st0" cx="383.2" cy="116.6" rx="29.9" ry="29.7"/>
</g>
</svg>
