<?xml version="1.0" encoding="utf-8"?>
<!-- Generator: Adobe Illustrator 16.0.0, SVG Export Plug-In . SVG Version: 6.00 Build 0)  -->
<!DOCTYPE svg PUBLIC "-//W3C//DTD SVG 1.1//EN" "http://www.w3.org/Graphics/SVG/1.1/DTD/svg11.dtd">
<svg fill="#ec1b2e" xmlns="http://www.w3.org/2000/svg" xmlns:xlink="http://www.w3.org/1999/xlink" version="1.1" id="SaveNature" x="0px" y="0px" width="512" height="512" viewBox="0 0 144.083 144" enable-background="new 0 0 144.083 144" xml:space="preserve">
<path d="M61.445,109.451H58.52V88.769c0-0.796-0.316-1.559-0.879-2.121L41.045,70.05c-1.666-1.666-3.881-2.583-6.236-2.583  c-0.488,0-0.969,0.049-1.441,0.126V56.184c0-4.863-3.957-8.819-8.82-8.819c-4.861,0-8.818,3.956-8.818,8.819v35.083  c0,0.796,0.316,1.559,0.879,2.121l12.322,12.323v3.74h-2.354c-1.656,0-3,1.343-3,3v17.301h6v-14.301h28.869v14.301h6v-17.301  C64.445,110.794,63.104,109.451,61.445,109.451z M52.52,109.451H34.93v-4.982c0-0.796-0.316-1.559-0.879-2.121L21.729,90.024v-33.84  c0-1.554,1.266-2.819,2.818-2.819c1.555,0,2.82,1.265,2.82,2.819V71.56c-0.893,1.4-1.379,3.025-1.379,4.726  c0,2.356,0.918,4.571,2.584,6.236l5.434,5.433l4.037,4.037l4.242-4.242l-4.037-4.037l-5.434-5.434  c-0.533-0.532-0.826-1.24-0.826-1.993c0-0.752,0.293-1.46,0.826-1.993c1.064-1.064,2.92-1.065,3.986,0L52.52,90.011V109.451z"/>
<path d="M119.536,47.365c-4.861,0-8.818,3.956-8.818,8.819v11.408c-0.473-0.077-0.953-0.126-1.441-0.126  c-2.355,0-4.57,0.917-6.236,2.583L86.442,86.647c-0.563,0.563-0.879,1.325-0.879,2.121v20.683h-2.926c-1.656,0-3,1.343-3,3v17.301h6  v-14.301h28.871v14.301h6v-17.301c0-1.657-1.342-3-3-3h-2.354v-3.74l12.32-12.323c0.563-0.563,0.879-1.325,0.879-2.121V56.184  C128.354,51.321,124.399,47.365,119.536,47.365z M122.354,90.024l-12.32,12.323c-0.563,0.563-0.879,1.325-0.879,2.121v4.982H91.563  v-19.44l15.719-15.719c1.066-1.064,2.922-1.067,3.986,0c0.533,0.533,0.826,1.241,0.826,1.993c0,0.753-0.293,1.461-0.826,1.994  l-9.469,9.47l4.242,4.242l9.469-9.469c1.666-1.666,2.584-3.881,2.584-6.237c0-1.7-0.484-3.323-1.377-4.723V56.184  c0-1.554,1.266-2.819,2.818-2.819c1.555,0,2.818,1.265,2.818,2.819V90.024z"/>
<path d="M95.458,52.157c0-17.135-20.484-36.303-21.355-37.11c-1.15-1.065-2.926-1.065-4.077,0  c-0.873,0.808-21.357,19.976-21.357,37.11c0,15.198,7.563,24.696,20.395,25.958v8.843h6v-8.843  C87.895,76.854,95.458,67.355,95.458,52.157z M69.063,72.067c-9.424-1.16-14.395-7.971-14.395-19.91  c0-2.013,0.377-4.094,1.016-6.185l13.379,13.377V72.067z M69.063,50.865L58.168,39.972c3.039-5.909,7.473-11.45,10.895-15.283  V50.865z M75.063,24.688c3.422,3.833,7.855,9.374,10.895,15.282L75.063,50.864V24.688z M75.063,72.067V59.349L88.442,45.97  c0.639,2.092,1.016,4.173,1.016,6.188C89.458,64.097,84.487,70.907,75.063,72.067z"/>
<rect x="69.063" y="91.087" width="6" height="7.43"/>
</svg>
