<?xml version="1.0" encoding="utf-8"?>
<!-- Generator: Adobe Illustrator 24.0.3, SVG Export Plug-In . SVG Version: 6.00 Build 0)  -->
<svg version="1.1" id="Layer_1" xmlns="http://www.w3.org/2000/svg" xmlns:xlink="http://www.w3.org/1999/xlink" x="0px" y="0px"
	 viewBox="0 0 512 512" style="enable-background:new 0 0 512 512;" xml:space="preserve">
<path d="M512,108.1H337.3c30.3-7.7,57.8-20.4,66.3-39.8c6.5-14.7,1.7-31-14.3-48.3C377.2,6.7,363.6,1.2,348.6,3.5
	c-41.8,6.6-79.7,75.6-91.7,99.5c-12-23.9-49.9-92.9-91.7-99.5c-14.8-2.3-28.6,3.2-40.7,16.5c-15.9,17.4-20.8,33.7-14.3,48.3
	c8.5,19.4,36.1,32,66.3,39.8H0v123.7h16.5v278.3h478.8V231.8H512V108.1z M197.4,221.5V118.4h52.2h6.5h1.5h6.5h50.4v103.1H197.4z
	 M302.1,231.8v268h-92.5v-268H302.1z M350.2,13.7c1.7-0.3,3.3-0.4,4.9-0.4c9.5,0,18.2,4.5,26.6,13.6c12.9,14.1,17.1,26.6,12.4,37.2
	c-11.9,27.1-79.4,42.2-128.3,43.8C277.2,85.5,313.4,19.5,350.2,13.7z M119.5,64.2C114.9,53.5,119,41,132,26.9
	c8.4-9.1,17.1-13.6,26.6-13.6c1.6,0,3.3,0.1,4.9,0.4c36.7,5.8,73,71.8,84.3,94.2C198.9,106.3,131.4,91.2,119.5,64.2z M10.3,221.5
	V118.4h176.8v103.1H16.5H10.3z M26.8,231.8h172.5v268H26.8V231.8z M485,499.9H312.4v-268H485V499.9z M501.7,221.5h-6.4H324.9V118.4
	h176.8V221.5z"/>
</svg>
