<?xml version="1.0" encoding="utf-8"?>
<!-- Generator: Adobe Illustrator 24.0.3, SVG Export Plug-In . SVG Version: 6.00 Build 0)  -->
<svg version="1.1" id="Layer_1" xmlns="http://www.w3.org/2000/svg" xmlns:xlink="http://www.w3.org/1999/xlink" x="0px" y="0px"
	 viewBox="0 0 512 512" style="enable-background:new 0 0 512 512;" xml:space="preserve">
<style type="text/css">
	.st0{fill:#BAB7B4;}
</style>
<g>
	<path class="st0" d="M319.6,140c11.4,0,22.7,0.1,33.9-0.1c1.2,0,2.7-1.2,3.5-2.2c3.1-3.9,6.7-4.7,11-2.4
		c6.3,3.3,12.6,6.6,18.7,10.2c12.5,7.4,17,20.5,11.9,34.1c-0.2,0.6-0.6,1.3-0.8,1.9c-12.3,29.5-12.3,29.5-41.9,41.6
		c-34.7,14.3-69.4,28.7-104.1,43c-0.5,0.2-1.1,0.3-1.4,0.6c-1.3,1.3-2.4,2.8-3.6,4.2c1.8,0.4,3.7,1.5,5.2,1.1c5.1-1.1,10-2.7,15-4.1
		c29.4-8.4,58.9-16.8,88.3-25.2c6.3-1.8,10.7-0.4,12.3,4c1.7,4.7-0.5,8.4-6.6,11.2c-27.9,12.7-55.8,25.4-83.6,38
		c-1.8,0.8-3.6,1.8-5.3,2.7c0.1,0.5,0.2,1,0.3,1.4c1.3-0.2,2.7-0.2,3.9-0.6c27.1-8.4,54.2-16.9,81.2-25.4c6.9-2.2,11.2-1.3,13.1,3.1
		c2.1,5-0.3,9-7.3,12.2c-21.8,10.1-43.6,20.2-65.4,30.4c-1.3,0.6-2.6,1.4-3.9,2.2c0.1,0.4,0.3,0.8,0.4,1.3c1.8-0.5,3.6-1,5.3-1.6
		c21.7-7.7,43.3-15.4,65-23.1c1.3-0.5,2.6-1.1,4-1.2c4.4-0.4,7.4,1.5,8.6,5.8c1.2,4.4-0.8,7.5-4.7,9.2c-4.2,1.8-8.6,3.2-12.8,5.5
		c4.3,0.6,8.5,1.5,12.8,1.8c1.4,0.1,3.4-0.8,4.4-1.9c16.3-17.2,32.7-34.4,48.7-52c3.3-3.6,5.5-8.4,7.6-12.9
		c3.7-7.6,6.9-15.5,10.3-23.3c6.2-14.4,16.4-24.7,30.6-31c8.2-3.7,16.5-7.2,24.8-10.7c6-2.5,10.4-1.2,12.3,3.5
		c1.8,4.5-0.2,8.3-6,10.8c-8.1,3.5-16.2,7-24.3,10.4c-10.6,4.4-18.2,11.8-22.7,22.4c-0.1,0.3-0.3,0.6-0.4,1
		c-8.4,26.1-24.4,47-44,65.7c-9.8,9.3-18.7,19.5-27.8,29.5c-3.3,3.6-6.8,5.2-11.9,4.5c-14.9-2.2-29.8-4.1-44.8-5.9
		c-2.5-0.3-5.2-0.1-7.6,0.7c-6.4,2-12.7,4.5-19.1,6.7c-15.3,5.3-26-3.5-24-19.6c0.1-0.5,0.1-1,0.1-2c-9,1.5-17-0.2-21-9.2
		c-3.1-7-2-13.9,3.5-20.1c-2.4,0.6-4.8,1.2-7.3,1.7c-9.6,2.2-18.8-2.5-22-11.1c-3.4-9.2,0.5-19,10.2-23.3
		c13.3-5.9,26.8-11.2,40.2-16.8c26.7-11,53.3-22.2,80.2-33c7.8-3.1,13.1-7.9,15.8-15.9c1.6-4.7,3.8-9.3,5.6-14
		c2.7-7,1.2-10.2-5.9-12.5c-27.2-8.8-54.6-8.6-80.9,2.2c-15.3,6.3-28.6,5.6-43.1-1.4c-16.8-8.2-34-15.3-51.8-23.2
		c-1.8,8.7-3.5,17.3-5.3,25.9c-0.5,2.5-0.8,5.1-1.5,7.6c-2,7.2-8.7,8.9-13.9,3.7c-1.9-1.9-3.7-3.9-6.4-6.9
		c-1.5,11.7-2.9,22.1-4.1,32.5c-0.5,3.9-1.7,7.1-5.5,8.7c-4,1.7-8.2-0.5-10.2-5.5c-3.5-8.5-6.8-17-10.3-25.5c-0.5,0.2-1,0.2-1.1,0.4
		c-3,8.8-10.1,12.3-18.5,14.7c-8.8,2.5-17.3,6-26,9.1c-10.5,3.8-13.7,10.7-9.9,21.2c10.3,28.5,20.6,56.9,31,85.4
		c0.6,1.8,1.4,3.6,1.9,5.4c1.3,4.6-0.7,8.6-4.8,10.1c-3.9,1.4-7.9-0.4-9.7-4.7c-2.2-5.4-4.1-10.9-6.1-16.3
		c-6.1,5.3-11.4,10.8-17.5,15.1c-20.9,14.7-43.5,15.1-66.9,6.9c-4.2-1.5-8.4-3.3-12.4-5.3c-4.8-2.4-6.3-6.6-4.3-10.7s6-5,11.1-3.3
		c9.6,3.1,19.2,7.3,29.2,8.5c23.1,2.7,39.8-8.8,52.1-27.5c1.1-1.6,1-4.7,0.3-6.7c-5.9-17-12.2-33.9-18.3-50.8
		c-6.9-19.3,0.7-35.3,20-42.2c9.3-3.3,18.7-6.4,27.8-10.1c2.6-1,4.7-3.6,6.7-5.7c1.2-1.4,1.7-3.4,2.7-5c2.8-5,6.9-8.3,12.9-8.1
		c5.9,0.2,10.2,2.9,12.4,8.6c0.2,0.4,0.6,0.8,0.4,0.6c2.4-5.4,3.7-12.1,7.6-16.4c4.9-5.3,11.5-2.6,17.5,2.2
		c1.7-8.3,3.3-15.9,4.8-23.6c0.4-2,0.7-4.1,1.4-6.1c1.5-4.4,5.6-6.5,9.9-4.9c3.7,1.3,7.3,3.2,10.9,4.8c20.6,9.1,41.2,18.1,61.7,27.3
		c3.4,1.5,6.4,1.1,9.9,0.2c8.5-2.3,14.2-7.4,19.5-14.3c20.4-26.7,20.6-26.3,53.2-34.4c12.9-3.2,25.3-3,37.9,0.5
		c9,2.5,18.2,4.2,27.2,6.8c6.7,2,12.8,1.9,18.7-2c2.2-1.5,4.8-2.5,8.7-4.4c-8.7-3.2-15.7-6.2-23-8.6c-39-13.1-78.1-15-117-0.2
		c-18.3,7-34.6,17.3-49.5,30c-1.8,1.6-3.6,3.3-5.5,4.7c-3.9,3.1-8.3,3-11.2-0.2c-3-3.2-2.9-8.5,1.1-11.5
		c11.6-8.8,22.7-18.4,35.3-25.6c45.2-26.1,93.4-29.6,143-15.3c14.1,4.1,27.4,10.5,41.2,15.6c2.1,0.8,5.1,0.9,7.1,0
		c10.4-4.7,20.6-9.8,30.9-14.7c5.3-2.5,9.9-1.3,11.9,3c2,4.4,0.1,8.5-5.4,11.1c-23.2,11.2-46.4,22.6-69.7,33.5
		c-3.1,1.5-7.5,1.7-10.9,0.9c-14.5-3.1-28.9-7.2-43.5-10.1c-6.1-1.2-12.7-0.6-18.9,0.2c-6.5,0.8-12.7,3.3-19.2,4.3
		C332.3,123.9,325.2,130.9,319.6,140z"/>
	<path class="st0" d="M182.8,442.2c-54.9-0.9-100.5-10-144.9-25.8c-5.7-2-8.1-6.1-6.4-10.6c1.6-4.5,5.9-6.1,11.7-4.1
		c41.4,14.5,83.9,23.6,128,24.4c37.1,0.7,72.8-4.8,105.8-23c24-13.3,42.2-32.3,55.7-56c0.9-1.7,1.8-3.4,2.8-5
		c2.7-4.3,7.2-5.6,11.1-3.3c3.7,2.2,4.8,6.5,2.4,10.9c-7.3,13.9-16.3,26.6-27.1,37.9c-27.3,28.5-61.2,44.2-99.7,50.2
		C206.5,440.5,190.8,441.4,182.8,442.2z"/>
</g>
</svg>
