<?xml version="1.0" encoding="iso-8859-1"?>
<!-- Generator: Adobe Illustrator 19.0.0, SVG Export Plug-In . SVG Version: 6.00 Build 0)  -->
<svg fill="#ec1b2e" version="1.1" id="Layer_1" xmlns="http://www.w3.org/2000/svg" xmlns:xlink="http://www.w3.org/1999/xlink" x="0px" y="0px"
	 viewBox="0 0 512.014 512.014" style="enable-background:new 0 0 512.014 512.014;" xml:space="preserve">
<g>
	<g>
		<path d="M511.189,28.274c-1.643-3.989-5.547-6.592-9.856-6.592c-80.043,0-153.067,25.237-195.307,67.477
			c-18.496,18.496-28.693,43.072-28.693,69.248c0,26.155,10.197,50.752,28.693,69.248c18.496,18.496,43.093,28.693,69.248,28.693
			s50.752-10.197,69.269-28.672c18.261-18.261,23.808-51.989,29.675-87.68c6.315-38.485,12.864-78.293,34.667-100.096
			C511.936,36.85,512.853,32.263,511.189,28.274z M453.141,136.519c-5.291,32.213-10.304,62.656-23.701,76.053
			c-28.928,28.928-79.403,28.928-108.331,0c-14.464-14.464-22.443-33.707-22.443-54.165c0-20.48,7.957-39.701,22.443-54.165
			c34.56-34.56,92.672-56.555,158.357-60.565C464.064,70.066,458.347,104.946,453.141,136.519z"/>
	</g>
</g>
<g>
	<g>
		<path d="M218.752,35.655C196.331,13.212,159.36,0.348,117.333,0.348c-4.309,0-8.213,2.581-9.856,6.571
			c-1.664,3.989-0.747,8.576,2.304,11.627c9.707,9.685,12.821,28.736,15.851,47.147c3.093,18.731,5.995,36.395,16.341,46.741
			c10.581,10.581,24.491,15.872,38.4,15.872c13.888,0,27.797-5.291,38.379-15.851C239.936,91.271,239.936,56.818,218.752,35.655z
			 M203.691,97.351c-12.864,12.864-33.771,12.864-46.635,0c-5.504-5.483-7.979-20.544-10.368-35.115
			c-2.133-13.013-4.459-27.136-9.493-39.424c27.691,3.221,51.712,13.163,66.496,27.904C216.555,63.58,216.555,84.487,203.691,97.351
			z"/>
	</g>
</g>
<g>
	<g>
		<path d="M402.219,110.151c-4.16-4.16-10.923-4.16-15.083,0c-56.533,56.512-85.312,120.128-98.901,159.552
			c-15.232-53.867-44.331-147.221-69.461-172.352c-4.16-4.16-10.923-4.16-15.083,0s-4.16,10.923,0,15.083
			c25.173,25.195,61.952,152.832,73.984,199.893c1.195,4.736,5.461,8.021,10.325,8.021c0.107,0,0.213,0,0.341,0
			c5.013-0.149,9.237-3.755,10.155-8.661c0.192-1.024,20.352-103.083,103.723-186.453
			C406.379,121.074,406.379,114.311,402.219,110.151z"/>
	</g>
</g>
<g>
	<g>
		<path d="M124.672,280.604c-18.283-17.323-91.392-22.933-113.365-24.235c-3.072-0.043-5.824,0.875-7.957,2.88
			C1.216,261.255,0,264.071,0,267.015v192c0,5.888,4.779,10.667,10.667,10.667h64c4.608,0,8.704-2.987,10.133-7.36
			c1.557-4.779,38.315-117.589,43.157-173.056C128.235,286.023,127.04,282.823,124.672,280.604z M66.88,448.348H21.333V278.45
			c34.283,2.709,71.296,8.597,84.715,15.125C100.395,340.295,74.816,423.303,66.88,448.348z"/>
	</g>
</g>
<g>
	<g>
		<path d="M510.891,411.548c-14.827-29.632-47.616-44.715-79.744-36.672l-81.728,20.437c-5.717,1.429-9.195,7.211-7.765,12.928
			c1.429,5.717,7.211,9.216,12.928,7.765l81.728-20.395c18.645-4.651,37.632,1.877,49.387,16.128l-105.749,48.085
			c-89.685,36.757-92.779,35.584-131.243,21.077l-160-53.333c-5.611-1.856-11.627,1.152-13.483,6.741
			c-1.856,5.589,1.152,11.627,6.741,13.483l159.595,53.184c17.941,6.763,30.315,10.688,44.224,10.688
			c21.632,0,46.976-9.451,102.656-32.299l117.333-53.333c2.624-1.195,4.672-3.413,5.632-6.144
			C512.363,417.138,512.192,414.151,510.891,411.548z"/>
	</g>
</g>
<g>
	<g>
		<path d="M311.637,341.938l-192-42.667c-5.696-1.173-11.456,2.368-12.736,8.107c-1.259,5.76,2.347,11.456,8.107,12.736
			l191.723,42.603c23.637,5.909,33.131,15.211,34.432,34.688l-20.48,5.12c-7.595,1.899-15.659,2.112-23.381,0.555l-92.544-18.517
			c-5.867-1.216-11.392,2.581-12.544,8.363c-1.152,5.781,2.581,11.392,8.363,12.544l92.565,18.517
			c4.8,0.96,9.728,1.429,14.635,1.429c6.101,0,12.203-0.747,18.091-2.219l28.715-7.168c4.757-1.195,8.085-5.461,8.085-10.347v-3.371
			C362.667,369.372,347.029,350.77,311.637,341.938z"/>
	</g>
</g>
<g>
</g>
<g>
</g>
<g>
</g>
<g>
</g>
<g>
</g>
<g>
</g>
<g>
</g>
<g>
</g>
<g>
</g>
<g>
</g>
<g>
</g>
<g>
</g>
<g>
</g>
<g>
</g>
<g>
</g>
</svg>
