<?xml version="1.0" encoding="iso-8859-1"?>
<!-- Generator: Adobe Illustrator 19.0.0, SVG Export Plug-In . SVG Version: 6.00 Build 0)  -->
<svg version="1.1" id="Capa_1" xmlns="http://www.w3.org/2000/svg" xmlns:xlink="http://www.w3.org/1999/xlink" x="0px" y="0px"
	 viewBox="0 0 512.001 512.001" style="enable-background:new 0 0 512.001 512.001;" xml:space="preserve">
<path style="fill:#7E8596;" d="M449.945,142.767c0.299-2.695,0.6-5.387,0.6-8.082C450.545,60.459,390.086,0,315.86,0
	c-21.251,0-41.603,5.087-59.86,14.365c-24.843,12.272-45.794,32.625-58.961,58.064c-13.769-8.079-29.633-12.57-45.794-12.57
	c-46.691,0-85.002,35.617-89.19,82.907c-37.413,24.84-61.457,66.743-61.457,111.638c0,74.225,61.457,134.685,135.682,134.685H375.72
	c74.225,0,135.682-60.459,135.682-134.685C511.402,209.509,487.657,167.607,449.945,142.767z"/>
<path style="fill:#707789;" d="M511.402,254.404c0,74.225-61.457,134.685-135.682,134.685h-119.72V14.365
	C274.257,5.087,294.609,0,315.86,0c74.225,0,134.685,60.459,134.685,134.685c0,2.695-0.299,5.387-0.6,8.082
	C487.657,167.607,511.402,209.509,511.402,254.404z"/>
<g>
	<path class="green_fill" style="fill:#E1E4FB;" d="M136.281,329.229c-24.756,0-44.895-20.139-44.895-44.895v-59.86
		c0-24.756,20.139-44.895,44.895-44.895s44.895,20.139,44.895,44.895c0,8.272-6.693,14.965-14.965,14.965
		c-8.272,0-14.965-6.693-14.965-14.965c0-8.257-6.708-14.965-14.965-14.965c-8.257,0-14.965,6.708-14.965,14.965v59.86
		c0,8.257,6.708,14.965,14.965,14.965c8.257,0,14.965-6.708,14.965-14.965c0-8.272,6.693-14.965,14.965-14.965
		c8.272,0,14.965,6.693,14.965,14.965C181.176,309.09,161.037,329.229,136.281,329.229z"/>
	<path class="green_fill" style="fill:#E1E4FB;" d="M256.001,179.579c-24.843,0-44.895,20.052-44.895,44.895v59.86
		c0,24.843,20.052,44.895,44.895,44.895c24.843,0,44.895-20.052,44.895-44.895v-59.86
		C300.895,199.632,280.842,179.579,256.001,179.579z M270.965,284.334c0,8.381-6.584,14.965-14.965,14.965
		s-14.965-6.584-14.965-14.965v-59.86c0-8.381,6.584-14.965,14.965-14.965s14.965,6.584,14.965,14.965V284.334z"/>
</g>
<path class="green_fill" style="fill:#CDD2E1;" d="M405.65,329.229h-59.86c-8.272,0-14.965-6.693-14.965-14.965v-11.428
	c0-17.113,9.514-32.502,24.815-40.16l26.773-13.387c5.1-2.543,8.272-7.672,8.272-13.387v-11.428c0-8.257-6.708-14.965-14.965-14.965
	c-8.257,0-14.965,6.708-14.965,14.965c0,8.272-6.693,14.965-14.965,14.965c-8.272,0-14.965-6.693-14.965-14.965
	c0-24.756,20.139-44.895,44.895-44.895s44.895,20.139,44.895,44.895v11.428c0,17.113-9.514,32.502-24.815,40.16l-26.773,13.387
	c-4.019,2.002-6.839,5.612-7.863,9.85h44.486c8.272,0,14.965,6.693,14.965,14.965C420.615,322.536,413.922,329.229,405.65,329.229z"
	/>
<g>
	<path style="fill:#7E8596;" d="M146.16,510.687c-15.739-6.664-25.151-18.911-25.151-32.765c0-13.84,9.412-26.086,25.151-32.75
		c5.348-2.266,6.81-4.72,6.898-5.217c-0.088-0.438-1.549-2.893-6.883-5.159c-7.614-3.201-11.18-11.984-7.964-19.598
		c3.215-7.628,11.984-11.195,19.598-7.964c15.769,6.649,25.166,18.896,25.166,32.75s-9.397,26.101-25.166,32.75
		c-5.335,2.266-6.796,4.735-6.869,5.217c0.073,0.438,1.534,2.908,6.883,5.174c7.614,3.215,11.165,11.998,7.95,19.612
		C162.543,510.387,153.745,513.896,146.16,510.687z"/>
	<path style="fill:#7E8596;" d="M256.001,477.282c-0.299,0.299-0.299,0.6-0.299,0.6s0,0.297,0.299,0.897
		c0.6,0.899,2.395,2.695,6.584,4.491c7.482,2.992,11.076,11.971,8.082,19.453c-2.693,5.986-8.679,9.278-14.666,9.278
		c-1.497,0-3.592-0.598-5.087-1.196c-15.864-6.883-25.142-19.155-25.142-32.922c0-13.769,9.278-26.039,25.142-32.625
		c2.393-1.196,4.189-2.095,5.087-2.992c1.496-1.198,1.796-2.095,1.796-2.395s-0.299-0.899-1.796-2.095
		c-0.899-0.897-2.695-1.796-5.087-2.992c-7.482-3.293-11.074-11.973-8.082-19.455c2.395-5.387,7.782-8.979,13.169-9.278
		c2.095,0,4.49,0.299,6.584,1.196c15.864,6.585,25.142,18.855,25.142,32.624c0,14.066-9.278,26.338-25.142,32.922
		C258.395,474.29,256.599,476.383,256.001,477.282z"/>
</g>
<g>
	<path style="fill:#707789;" d="M355.669,510.687c-15.739-6.664-25.151-18.911-25.151-32.765c0-13.84,9.412-26.086,25.151-32.75
		c5.348-2.266,6.81-4.72,6.898-5.217c-0.088-0.438-1.549-2.893-6.883-5.159c-7.614-3.201-11.18-11.984-7.964-19.598
		c3.215-7.628,11.984-11.195,19.598-7.964c15.769,6.649,25.166,18.896,25.166,32.75s-9.397,26.101-25.166,32.75
		c-5.335,2.266-6.796,4.735-6.869,5.217c0.073,0.438,1.534,2.908,6.883,5.174c7.614,3.215,11.165,11.998,7.95,19.612
		C372.053,510.387,363.254,513.896,355.669,510.687z"/>
	<path style="fill:#707789;" d="M287.726,439.87c0,14.066-9.278,26.338-25.142,32.922c-4.189,1.497-5.985,3.592-6.584,4.49v-71.233
		c2.095,0,4.49,0.299,6.584,1.196C278.448,413.831,287.726,426.101,287.726,439.87z"/>
	<path style="fill:#707789;" d="M270.665,502.722C267.973,508.708,261.987,512,256,512v-33.222c0.6,0.899,2.395,2.695,6.584,4.491
		C270.067,486.261,273.659,495.239,270.665,502.722z"/>
</g>
<path class="green_fill" style="fill:#CDD2E1;" d="M300.895,224.474v59.86c0,24.843-20.052,44.895-44.895,44.895v-29.93
	c8.381,0,14.965-6.584,14.965-14.965v-59.86c0-8.381-6.584-14.965-14.965-14.965v-29.93
	C280.842,179.579,300.895,199.632,300.895,224.474z"/>
<g>
</g>
<g>
</g>
<g>
</g>
<g>
</g>
<g>
</g>
<g>
</g>
<g>
</g>
<g>
</g>
<g>
</g>
<g>
</g>
<g>
</g>
<g>
</g>
<g>
</g>
<g>
</g>
<g>
</g>
</svg>
