<svg id="Layer_1" data-name="Layer 1" xmlns="http://www.w3.org/2000/svg" viewBox="0 0 500 500"><defs></defs><title>Icon EC</title><path class="cls-1" d="M396.42,104.26H341.57c-4.11-14.3-10.63-29-21.64-41.07-16.16-17.72-38.14-26.71-65.41-26.71s-49.31,9-65.56,26.7C177.89,75.27,171.29,90,167.1,104.26H106.91L88.74,412.94A42.29,42.29,0,0,0,131,455.18H369.07c23.28,0,42.22-18.95,42.19-42.94ZM210.69,83c10.59-11.5,24.92-17.1,43.83-17.1s33.12,5.57,43.63,17a67.13,67.13,0,0,1,12.63,21.35H198A67.83,67.83,0,0,1,210.69,83ZM369.07,425.78H131c-7.09,0-12.86-5.76-12.89-12l16.53-280.15h26.8a175.67,175.67,0,0,0-.62,27.69l29.27-2.53a156.38,156.38,0,0,1,.85-25.16H317.59a150.85,150.85,0,0,1,.68,25.08l29.27,2.69a175.69,175.69,0,0,0-.47-27.77h21.34L381.9,412.94A12.86,12.86,0,0,1,369.07,425.78Z"/><rect class="cls-1" x="144.36" y="364.74" width="211.27" height="29.39"/></svg>