<svg id="Layer_1" data-name="Layer 1" xmlns="http://www.w3.org/2000/svg" viewBox="0 0 500 500"><defs><style>.cls-1{fill:#818281;}</style></defs><title>Untitled-2</title><path class="cls-1" d="M499,95.8v.44c-1.81,5.4-5.79,9.36-9.1,13.75-6.59,8.76-14.38,16.46-22.27,24a161.24,161.24,0,0,1-16.14,13.37,4.88,4.88,0,0,0-2.26,4.41c.09,4.08,0,8.16,0,12.25a271.32,271.32,0,0,1-3.36,41.53,297.78,297.78,0,0,1-11.8,48.59,306.57,306.57,0,0,1-21.1,48.7,294.3,294.3,0,0,1-31.2,46.88c-4.91,6-10.15,11.81-15.51,17.48A274.31,274.31,0,0,1,332,397.84a276.86,276.86,0,0,1-78.09,40.91,289.36,289.36,0,0,1-53,12.17,218.28,218.28,0,0,1-22.41,1.52c-2.26.06-4.51.24-6.77.2H143.53c-22.69.12-44.76-3.9-66.51-10a290.85,290.85,0,0,1-56.84-23c-5.86-3.09-11.63-6.38-17.19-10C2.06,409,.57,408.4,1.07,407s2.05-.93,3.26-.83a225.56,225.56,0,0,0,31.2.71,211.12,211.12,0,0,0,40.11-6.05,203.73,203.73,0,0,0,44.82-17.18,209.18,209.18,0,0,0,28-17.85c-2.65-1.07-5.28-.78-7.8-1.09A101.34,101.34,0,0,1,92.2,345.07a103.39,103.39,0,0,1-31.11-37.23,96.42,96.42,0,0,1-4.81-11.49c-.93-2.66.17-4,2.95-3.53a93.89,93.89,0,0,0,19.14,1.45,106.59,106.59,0,0,0,19.39-2.52,104.21,104.21,0,0,1-67.38-54.21A99.73,99.73,0,0,1,20.11,201.6a78.75,78.75,0,0,1-.32-8.95c.08-2.86,1.24-3.45,3.74-2.19a102.55,102.55,0,0,0,34.71,10.68c.73.08,1.44.25,2.16.33a18.62,18.62,0,0,0,2.49.08c-2-1.75-4-3.13-5.79-4.69a102.7,102.7,0,0,1-35.65-64.33,113.5,113.5,0,0,1-.71-22.25,95,95,0,0,1,7.89-33c1.28-3,2.63-5.86,4.16-8.68,1.7-3.15,3.07-3.24,5.33-.56,4.29,5,8.74,10,13.29,14.79A281.35,281.35,0,0,0,89.05,116a295.77,295.77,0,0,0,36,22.71,280.55,280.55,0,0,0,47.06,19.87,281.6,281.6,0,0,0,51.56,11.53c6.07.75,12.14,1.42,18.26,1.73,2.43.12,2.66,0,2.22-2.52a110,110,0,0,1-1.71-22.62,103.25,103.25,0,0,1,80.22-97.58c5.81-1.33,11.69-1.4,17.56-1.65a159.47,159.47,0,0,1,23.13.68,72.67,72.67,0,0,1,17.34,4.42,105.86,105.86,0,0,1,33.17,19.5,40.23,40.23,0,0,1,4.35,4.31,5.06,5.06,0,0,0,5.6,1.76,218.12,218.12,0,0,0,36.41-11.6,246,246,0,0,0,22.14-10.95c.87-.47,1.73-.93,2.64-.26s.76,1.82.42,2.8a98.23,98.23,0,0,1-8.65,18.6,105.34,105.34,0,0,1-18.49,22.88,96.93,96.93,0,0,1-12.5,9.88,12,12,0,0,1-2.56,1.12,1.88,1.88,0,0,1,.66-.21c4.8-1.21,9.72-1.75,14.54-2.81A211.13,211.13,0,0,0,495.6,95.91C496.72,95.44,497.85,94.71,499,95.8Z"/></svg>