<svg id="Layer_1" data-name="Layer 1" xmlns="http://www.w3.org/2000/svg" viewBox="0 0 500 500"><defs><style>.cls-1{fill:#fff;}</style></defs><title>Untitled-2</title><path class="cls-1" d="M423.24,83H357.6c-4.65-18.1-12.73-37-26.67-52.33C312.4,10.31,287,0,255.51,0s-56.95,10.31-75.59,30.63c-14,15.29-22.22,34.24-27,52.34H80.76L58.86,454.6a45.44,45.44,0,0,0,45.4,45.4h291.5a45.55,45.55,0,0,0,45.38-46ZM197.13,46.43c14-15.31,33.67-23.07,58.38-23.07s44.2,7.72,58.1,23C323.19,56.8,329.36,69.85,333.34,83H177.21C181.26,69.92,187.51,56.92,197.13,46.43ZM395.76,476.64H104.26c-12.15,0-22-9.88-22.05-21.35l20.57-349h45.63A200.81,200.81,0,0,0,147.05,146l23.27-2A185.71,185.71,0,0,1,172,106.33H338.38a185.08,185.08,0,0,1,1.47,37.6l23.27,2.14A200.92,200.92,0,0,0,362,106.33h39L417.79,454.6A22.05,22.05,0,0,1,395.76,476.64Z"/><rect class="cls-1" x="113.4" y="421.88" width="273.24" height="23.36"/></svg>