<svg id="Layer_1" data-name="Layer 1" xmlns="http://www.w3.org/2000/svg" viewBox="0 0 500 500"><defs></defs><title>Icon EC</title><path class="cls-1" d="M469,198.11,257.72,70.81l-.06,0-.54-.29A14.54,14.54,0,0,0,251,68.71a14.78,14.78,0,0,0-8.67,2.1L31,198.11a14.94,14.94,0,0,0-6.67,16.95c1.87,6.49,8.54,10.61,14.65,10.83l55.21-1V440.21a15,15,0,0,0,15,15H201.8a15,15,0,0,0,15-15V291.38h67.69V440.21a15,15,0,0,0,15,15h91.46a15,15,0,0,0,15-15V224.93l55.18,1c6.29-.14,12.78-4.34,14.65-10.83A14.94,14.94,0,0,0,469,198.11Zm-77.87-3.38A13.91,13.91,0,0,0,380.4,199a14.92,14.92,0,0,0-4.48,10.67V425.24H314.39V276.42a15,15,0,0,0-15-15H201.8a15,15,0,0,0-15,15V425.24H124.11V209.7a15,15,0,0,0-15.23-15L94.14,195,250,101.1,405.86,195Z"/></svg>