<?xml version="1.0" encoding="utf-8"?>
<!-- Generator: Adobe Illustrator 23.0.3, SVG Export Plug-In . SVG Version: 6.00 Build 0)  -->
<svg version="1.1" xmlns="http://www.w3.org/2000/svg" xmlns:xlink="http://www.w3.org/1999/xlink" x="0px" y="0px"
	 viewBox="0 0 345.04 279.84" style="enable-background:new 0 0 345.04 279.84;" xml:space="preserve">
<style type="text/css">
	.st0{opacity:0.15;}
	.st1{fill:#56412E;}
	.st2{fill:#4F6F00;}
	.st3{fill:#89BF11;}
	.st4{fill:#689310;}
	.st5{fill:#D1D88B;}
	.st6{fill:#649603;}
	.st7{opacity:0.15;fill-rule:evenodd;clip-rule:evenodd;}
	.st8{fill-rule:evenodd;clip-rule:evenodd;fill:#4C9027;}
	.st9{fill:#E6E7E8;}
	.st10{fill:#FFFFFF;}
</style>
<g id="Background">
</g>
<g id="design">
	<g class="st0">
		<path d="M95.75,176.05l3.62-20.51c-11.47,4.03-28.58,6.13-38.85,0.03c-3.1-1.84-5.65-4.05-8.98-10.35
			c1.32,6.02,6,12.21,10.33,13.91c-9.18-0.35-19.96,3.66-27.44,10.75c6.07-4.47,12.11-6.07,18.26-6.87
			c13.7-1.77,27.46,0.29,38.98,8.76C93.16,172.87,94.72,174.12,95.75,176.05z"/>
		<path d="M41.72,140.66c4.46,0.79,7.44,5.04,6.66,9.51c-0.79,4.46-5.04,7.44-9.51,6.66c-4.46-0.79-7.44-5.04-6.66-9.51
			C33,142.86,37.26,139.88,41.72,140.66z"/>
		<path d="M48.33,119.02c4.43,0.78,7.38,5,6.6,9.43c-0.78,4.43-5,7.38-9.43,6.6c-4.43-0.78-7.38-5-6.6-9.43
			C39.68,121.19,43.9,118.24,48.33,119.02z"/>
		<path d="M21.19,151.02c4.43,0.78,7.38,5,6.6,9.43c-0.78,4.43-5,7.38-9.43,6.6c-4.43-0.78-7.38-5-6.6-9.43
			C12.54,153.19,16.76,150.24,21.19,151.02z"/>
		<path d="M62.45,169.34c4.43,0.78,7.38,5,6.6,9.43c-0.78,4.43-5,7.38-9.43,6.6c-4.43-0.78-7.38-5-6.6-9.43
			C53.81,171.52,58.03,168.56,62.45,169.34z"/>
		<path d="M36.68,173.06c4.78,0.84,7.97,5.4,7.12,10.17c-0.84,4.78-5.4,7.97-10.17,7.12c-4.78-0.84-7.97-5.4-7.12-10.17
			C27.35,175.41,31.91,172.22,36.68,173.06z"/>
		<path d="M67.22,135.9c5.03,0.89,8.4,5.69,7.51,10.72c-0.89,5.03-5.69,8.4-10.72,7.51c-5.03-0.89-8.4-5.69-7.51-10.72
			C57.38,138.37,62.18,135.01,67.22,135.9z"/>
		<path d="M22.72,135.4c2.54,0.45,4.24,2.87,3.79,5.41c-0.45,2.54-2.87,4.24-5.41,3.79c-2.54-0.45-4.24-2.87-3.79-5.41
			C17.76,136.65,20.18,134.95,22.72,135.4z"/>
		<path d="M20.81,174.46c2.18,0.38,3.63,2.46,3.25,4.64c-0.38,2.18-2.46,3.63-4.64,3.25c-2.18-0.38-3.63-2.46-3.25-4.64
			C16.55,175.53,18.63,174.08,20.81,174.46z"/>
		<path d="M32.21,127.7c1.69,0.3,2.82,1.91,2.52,3.6c-0.3,1.69-1.91,2.82-3.6,2.52c-1.69-0.3-2.82-1.91-2.52-3.6
			S30.52,127.41,32.21,127.7z"/>
		<path d="M35.85,161.83c1.51,0.27,2.52,1.7,2.25,3.21c-0.27,1.51-1.7,2.52-3.21,2.25c-1.51-0.27-2.52-1.7-2.25-3.21
			C32.9,162.57,34.34,161.57,35.85,161.83z"/>
		<path d="M51.18,165.67c1.51,0.27,2.52,1.7,2.25,3.21c-0.27,1.51-1.7,2.52-3.21,2.25c-1.51-0.27-2.52-1.7-2.25-3.21
			C48.23,166.41,49.67,165.41,51.18,165.67z"/>
		<path d="M50.5,138.15c1.16,0.2,1.94,1.31,1.73,2.47c-0.2,1.16-1.31,1.94-2.47,1.73c-1.16-0.2-1.94-1.31-1.73-2.47
			C48.23,138.72,49.34,137.95,50.5,138.15z"/>
		<path d="M49.41,183.57c2.18,0.38,3.63,2.46,3.25,4.64c-0.38,2.18-2.46,3.63-4.64,3.25c-2.18-0.38-3.63-2.46-3.25-4.64
			C45.16,184.64,47.23,183.19,49.41,183.57z"/>
		<path d="M63.64,125.92c2.18,0.38,3.63,2.46,3.25,4.64c-0.38,2.18-2.46,3.63-4.64,3.25c-2.18-0.38-3.63-2.46-3.25-4.64
			C59.39,126.99,61.46,125.54,63.64,125.92z"/>
	</g>
	<g>
		<path class="st1" d="M97.03,181.02l3.62-20.51c-11.47,4.03-28.58,6.13-38.85,0.03c-3.1-1.84-5.65-4.05-8.98-10.35
			c1.32,6.02,6,12.21,10.33,13.91c-9.18-0.35-19.96,3.66-27.44,10.75c6.07-4.47,12.11-6.07,18.26-6.87
			c13.7-1.77,27.46,0.29,38.98,8.76C94.44,177.84,96,179.09,97.03,181.02z"/>
		<path class="st2" d="M43,145.63c4.46,0.79,7.44,5.04,6.66,9.51c-0.79,4.46-5.04,7.44-9.51,6.66c-4.46-0.79-7.44-5.04-6.66-9.51
			C34.28,147.82,38.54,144.84,43,145.63z"/>
		<path class="st2" d="M49.6,123.99c4.43,0.78,7.38,5,6.6,9.43s-5,7.38-9.43,6.6c-4.43-0.78-7.38-5-6.6-9.43
			C40.96,126.16,45.18,123.21,49.6,123.99z"/>
		<path class="st2" d="M22.47,155.99c4.43,0.78,7.38,5,6.6,9.43c-0.78,4.43-5,7.38-9.43,6.6s-7.38-5-6.6-9.43
			C13.82,158.16,18.04,155.21,22.47,155.99z"/>
		<path class="st2" d="M63.73,174.31c4.43,0.78,7.38,5,6.6,9.43c-0.78,4.43-5,7.38-9.43,6.6s-7.38-5-6.6-9.43
			C55.08,176.48,59.31,173.53,63.73,174.31z"/>
		<path class="st2" d="M37.96,178.03c4.78,0.84,7.97,5.4,7.12,10.17c-0.84,4.78-5.4,7.97-10.17,7.12s-7.97-5.4-7.12-10.17
			S33.18,177.19,37.96,178.03z"/>
		<path class="st2" d="M68.49,140.86c5.03,0.89,8.4,5.69,7.51,10.72c-0.89,5.03-5.69,8.4-10.72,7.51c-5.03-0.89-8.4-5.69-7.51-10.72
			C58.66,143.34,63.46,139.98,68.49,140.86z"/>
		<path class="st2" d="M24,140.37c2.54,0.45,4.24,2.87,3.79,5.41c-0.45,2.54-2.87,4.24-5.41,3.79c-2.54-0.45-4.24-2.87-3.79-5.41
			C19.04,141.62,21.46,139.92,24,140.37z"/>
		<path class="st2" d="M22.09,179.43c2.18,0.38,3.63,2.46,3.25,4.64c-0.38,2.18-2.46,3.63-4.64,3.25c-2.18-0.38-3.63-2.46-3.25-4.64
			C17.83,180.5,19.91,179.05,22.09,179.43z"/>
		<path class="st2" d="M33.48,132.67c1.69,0.3,2.82,1.91,2.52,3.6c-0.3,1.69-1.91,2.82-3.6,2.52c-1.69-0.3-2.82-1.91-2.52-3.6
			C30.18,133.5,31.79,132.37,33.48,132.67z"/>
		<path class="st2" d="M37.12,166.8c1.51,0.27,2.52,1.7,2.25,3.21c-0.27,1.51-1.7,2.52-3.21,2.25c-1.51-0.27-2.52-1.7-2.25-3.21
			C34.18,167.54,35.62,166.54,37.12,166.8z"/>
		<path class="st2" d="M52.46,170.64c1.51,0.27,2.52,1.7,2.25,3.21c-0.27,1.51-1.7,2.52-3.21,2.25c-1.51-0.27-2.52-1.7-2.25-3.21
			C49.51,171.38,50.95,170.38,52.46,170.64z"/>
		<path class="st2" d="M51.78,143.12c1.16,0.2,1.94,1.31,1.73,2.47c-0.2,1.16-1.31,1.94-2.47,1.73c-1.16-0.2-1.94-1.31-1.73-2.47
			C49.51,143.69,50.62,142.92,51.78,143.12z"/>
		<ellipse transform="matrix(0.8191 -0.5736 0.5736 0.8191 -101.3641 63.4892)" class="st2" cx="49.99" cy="192.48" rx="4" ry="4"/>
		<path class="st2" d="M64.92,130.89c2.18,0.38,3.63,2.46,3.25,4.64c-0.38,2.18-2.46,3.63-4.64,3.25c-2.18-0.38-3.63-2.46-3.25-4.64
			C60.66,131.96,62.74,130.5,64.92,130.89z"/>
	</g>
	<g class="st0">
		<path d="M32.59,164.92c-1.98,2.79-3.38,6.9-3.24,10.32c0.11,2.48,1.23,6.64,3.12,8.18c-8.1-3.58-18.58-1.25-24.27,5.64
			c-6.27,7.61-6.11,19.68,0.16,27.29c6.27,7.61,17.85,10.13,26.84,6.07c-4.73,8.12-0.43,19.54,7.82,24.04
			c8.25,4.5,18.94,2.79,26.64-2.6c6.44-4.51,11.23-11.63,12.03-19.45c0.8-7.82-2.8-16.16-9.53-20.22c2.29-1.72,4.39-3.47,5.23-6.2
			c0.36-1.17,0.61-2.63,0.55-3.85c-0.17-3.36-1.39-7.14-4.43-8.84c5.06-9.96-0.94-23.41-11.32-27.54S39.06,155.82,32.59,164.92z"/>
		<g>
			<path d="M63.7,196.93c-5.94-0.85-11.8-3.47-16.34-7.4c5.46,6.41,12.55,11.41,20.42,14.41c-7.79,3.84-14.82,9.21-20.57,15.73
				c13.91-11.1,33.07-15.55,50.46-11.77l-1.55-12.86c-4.54,1.39-9.21,2.37-13.93,2.9c-4.24,0.48-8.69,0.57-12.61-1.1
				c-3.29-1.4-6.1-4.34-6.82-7.76C62.67,191.62,62.91,194.34,63.7,196.93z"/>
		</g>
	</g>
	<g>
		<path class="st3" d="M32.84,170.05c-1.98,2.79-3.38,6.9-3.24,10.32c0.11,2.48,1.23,6.64,3.12,8.18
			c-8.1-3.58-18.58-1.25-24.27,5.64c-6.27,7.61-6.11,19.68,0.16,27.29c6.27,7.61,17.85,10.13,26.84,6.07
			c-4.73,8.12-0.43,19.54,7.82,24.04c8.25,4.5,18.94,2.79,26.64-2.6c6.44-4.51,11.23-11.63,12.03-19.45
			c0.8-7.82-2.8-16.16-9.53-20.22c2.29-1.72,4.39-3.47,5.23-6.2c0.36-1.17,0.61-2.63,0.55-3.85c-0.17-3.36-1.39-7.14-4.43-8.84
			c5.06-9.96-0.94-23.41-11.32-27.54C52.07,158.75,39.31,160.94,32.84,170.05z"/>
		<g>
			<path class="st1" d="M63.95,202.06c-5.94-0.85-11.8-3.47-16.34-7.4c5.46,6.41,12.55,11.41,20.42,14.41
				c-7.79,3.84-14.82,9.21-20.57,15.73c13.91-11.1,33.07-15.55,50.46-11.77l-1.55-12.86c-4.54,1.39-9.21,2.37-13.93,2.9
				c-4.24,0.48-8.69,0.57-12.61-1.1c-3.29-1.4-6.1-4.34-6.82-7.76C62.92,196.74,63.15,199.47,63.95,202.06z"/>
		</g>
	</g>
	<g class="st0">
		<path d="M250.6,186.81l-4.1,20.42c11.56-3.76,28.72-5.45,38.84,0.89c3.05,1.91,5.55,4.18,8.73,10.56
			c-1.18-6.05-5.71-12.35-10-14.15c9.17,0.56,20.04-3.19,27.68-10.09c-6.18,4.32-12.25,5.79-18.42,6.43
			c-13.74,1.44-27.44-0.94-38.76-9.68C253.11,190.05,251.57,188.76,250.6,186.81z"/>
		<path d="M303.77,223.47c-4.44-0.89-7.32-5.22-6.43-9.66c0.89-4.44,5.22-7.32,9.66-6.43c4.44,0.89,7.32,5.22,6.43,9.66
			C312.54,221.48,308.22,224.36,303.77,223.47z"/>
		<path d="M296.65,244.95c-4.41-0.89-7.26-5.18-6.38-9.58c0.89-4.41,5.18-7.26,9.58-6.38c4.41,0.89,7.26,5.18,6.38,9.58
			C305.35,242.98,301.06,245.84,296.65,244.95z"/>
		<path d="M324.54,213.6c-4.41-0.89-7.26-5.18-6.38-9.58s5.18-7.26,9.58-6.38c4.41,0.89,7.26,5.18,6.38,9.58
			C333.24,211.63,328.95,214.49,324.54,213.6z"/>
		<ellipse transform="matrix(0.1453 -0.9894 0.9894 0.1453 59.5039 441.5427)" cx="285.33" cy="186.33" rx="8.14" ry="8.14"/>
		<path d="M309.57,191.2c-4.76-0.96-7.84-5.58-6.88-10.34c0.96-4.76,5.58-7.84,10.34-6.88c4.76,0.96,7.84,5.58,6.88,10.34
			C318.96,189.07,314.33,192.15,309.57,191.2z"/>
		<ellipse transform="matrix(0.9718 -0.2358 0.2358 0.9718 -43.6448 72.1954)" cx="279.99" cy="218.56" rx="9.26" ry="9.26"/>
		<ellipse transform="matrix(0.8325 -0.554 0.554 0.8325 -70.239 216.8878)" cx="323.56" cy="224.6" rx="4.67" ry="4.67"/>
		<path d="M325.48,190.17c-2.17-0.44-3.57-2.54-3.14-4.71c0.44-2.17,2.54-3.57,4.71-3.14c2.17,0.44,3.57,2.54,3.14,4.71
			C329.76,189.2,327.65,190.61,325.48,190.17z"/>
		<ellipse transform="matrix(0.8325 -0.554 0.554 0.8325 -76.8976 212.8731)" cx="313.59" cy="233.61" rx="3.11" ry="3.11"/>
		<path d="M310.15,202.44c-1.5-0.3-2.47-1.76-2.17-3.27c0.3-1.5,1.76-2.47,3.27-2.17c1.5,0.3,2.47,1.76,2.17,3.27
			C313.11,201.77,311.65,202.75,310.15,202.44z"/>
		<path d="M294.9,198.24c-1.5-0.3-2.47-1.76-2.17-3.27c0.3-1.5,1.76-2.47,3.27-2.17c1.5,0.3,2.47,1.76,2.17,3.27
			C297.87,197.57,296.41,198.54,294.9,198.24z"/>
		<path d="M294.94,225.77c-1.16-0.23-1.9-1.36-1.67-2.51c0.23-1.16,1.36-1.9,2.51-1.67c1.16,0.23,1.9,1.36,1.67,2.51
			C297.22,225.25,296.09,226,294.94,225.77z"/>
		<path d="M297.1,180.39c-2.17-0.44-3.57-2.54-3.14-4.71c0.44-2.17,2.54-3.57,4.71-3.14c2.17,0.44,3.57,2.54,3.14,4.71
			C301.38,179.42,299.27,180.83,297.1,180.39z"/>
		<path d="M281.51,237.69c-2.17-0.44-3.57-2.54-3.14-4.71c0.44-2.17,2.54-3.57,4.71-3.14c2.17,0.44,3.57,2.54,3.14,4.71
			C285.79,236.72,283.68,238.13,281.51,237.69z"/>
	</g>
	<g>
		<path class="st1" d="M249.43,181.81l-4.1,20.42c11.56-3.76,28.72-5.45,38.84,0.89c3.05,1.91,5.55,4.18,8.73,10.56
			c-1.18-6.05-5.71-12.35-10-14.15c9.17,0.56,20.04-3.19,27.68-10.09c-6.18,4.32-12.25,5.79-18.42,6.43
			c-13.74,1.44-27.44-0.94-38.76-9.68C251.95,185.06,250.41,183.76,249.43,181.81z"/>
		<path class="st2" d="M302.61,218.47c-4.44-0.89-7.32-5.22-6.43-9.66c0.89-4.44,5.22-7.32,9.66-6.43c4.44,0.89,7.32,5.22,6.43,9.66
			C311.38,216.49,307.05,219.37,302.61,218.47z"/>
		<path class="st2" d="M295.49,239.95c-4.41-0.89-7.26-5.18-6.38-9.58c0.89-4.41,5.18-7.26,9.58-6.38c4.41,0.89,7.26,5.18,6.38,9.58
			C304.19,237.98,299.9,240.84,295.49,239.95z"/>
		<path class="st2" d="M323.38,208.61c-4.41-0.89-7.26-5.18-6.38-9.58c0.88-4.41,5.18-7.26,9.58-6.38c4.41,0.89,7.26,5.18,6.38,9.58
			C332.08,206.64,327.79,209.49,323.38,208.61z"/>
		
			<ellipse transform="matrix(0.5971 -0.8022 0.8022 0.5971 -30.9698 301.0027)" class="st2" cx="284.16" cy="181.33" rx="8.14" ry="8.14"/>
		
			<ellipse transform="matrix(0.4472 -0.8944 0.8944 0.4472 12.5962 375.5645)" class="st2" cx="310.14" cy="177.59" rx="8.78" ry="8.78"/>
		
			<ellipse transform="matrix(0.4283 -0.9036 0.9036 0.4283 -33.5782 374.0416)" class="st2" cx="278.83" cy="213.56" rx="9.26" ry="9.26"/>
		<path class="st2" d="M321.48,224.18c-2.53-0.51-4.17-2.97-3.66-5.5c0.51-2.53,2.97-4.17,5.5-3.66c2.53,0.51,4.17,2.97,3.66,5.5
			C326.47,223.05,324.01,224.69,321.48,224.18z"/>
		<path class="st2" d="M324.32,185.18c-2.17-0.44-3.57-2.54-3.14-4.71c0.44-2.17,2.54-3.57,4.71-3.14c2.17,0.44,3.57,2.54,3.14,4.71
			C328.59,184.21,326.49,185.61,324.32,185.18z"/>
		<path class="st2" d="M311.82,231.65c-1.68-0.34-2.77-1.98-2.43-3.66c0.34-1.68,1.98-2.77,3.66-2.43c1.68,0.34,2.77,1.98,2.43,3.66
			C315.14,230.9,313.5,231.99,311.82,231.65z"/>
		<path class="st2" d="M308.98,197.45c-1.5-0.3-2.47-1.76-2.17-3.27c0.3-1.5,1.76-2.47,3.27-2.17c1.5,0.3,2.47,1.76,2.17,3.27
			C311.95,196.78,310.49,197.75,308.98,197.45z"/>
		<path class="st2" d="M293.74,193.25c-1.5-0.3-2.47-1.76-2.17-3.27c0.3-1.5,1.76-2.47,3.27-2.17c1.5,0.3,2.47,1.76,2.17,3.27
			S295.25,193.55,293.74,193.25z"/>
		<path class="st2" d="M293.78,220.77c-1.16-0.23-1.9-1.36-1.67-2.51s1.36-1.9,2.51-1.67c1.16,0.23,1.9,1.36,1.67,2.51
			S294.93,221.01,293.78,220.77z"/>
		<path class="st2" d="M295.94,175.39c-2.17-0.44-3.57-2.54-3.14-4.71c0.44-2.17,2.54-3.57,4.71-3.14c2.17,0.44,3.57,2.54,3.14,4.71
			C300.21,174.43,298.11,175.83,295.94,175.39z"/>
		<path class="st2" d="M280.35,232.69c-2.17-0.44-3.57-2.54-3.14-4.71c0.44-2.17,2.54-3.57,4.71-3.14c2.17,0.44,3.57,2.54,3.14,4.71
			C284.63,231.72,282.52,233.13,280.35,232.69z"/>
	</g>
	<g class="st0">
		<path d="M320.13,194.68c1.45-3.1,2.09-7.39,1.34-10.73c-0.55-2.42-2.4-6.32-4.53-7.49c8.61,2.08,18.51-2.09,22.87-9.89
			c4.81-8.6,2.49-20.45-5.03-26.82c-7.53-6.37-19.38-6.78-27.49-1.18c3.2-8.84-3.07-19.3-11.99-22.26
			c-8.92-2.95-19.13,0.64-25.75,7.31c-5.54,5.59-8.97,13.45-8.36,21.29c0.61,7.84,5.64,15.4,12.99,18.19
			c-1.95,2.1-3.7,4.2-4.04,7.04c-0.15,1.21-0.13,2.69,0.15,3.88c0.76,3.27,2.65,6.77,5.94,7.91c-3.2,10.7,5.11,22.87,16.06,25.08
			C303.23,209.23,315.4,204.8,320.13,194.68z"/>
		<g>
			<path d="M283.8,168.74c6-0.22,12.23,1.31,17.4,4.36c-6.52-5.33-14.39-8.99-22.66-10.53c6.98-5.17,12.94-11.71,17.42-19.15
				c-11.7,13.4-29.76,21.21-47.54,20.6l3.83,12.37c4.22-2.18,8.64-3.97,13.19-5.34c4.09-1.23,8.44-2.12,12.61-1.17
				c3.49,0.79,6.77,3.18,8.09,6.42C285.77,173.79,285.05,171.15,283.8,168.74z"/>
		</g>
	</g>
	<g>
		<path class="st3" d="M318.97,189.68c1.45-3.1,2.09-7.39,1.34-10.73c-0.55-2.42-2.4-6.32-4.53-7.49
			c8.61,2.08,18.51-2.09,22.87-9.89c4.81-8.6,2.49-20.45-5.03-26.82c-7.53-6.37-19.38-6.78-27.49-1.18
			c3.2-8.84-3.07-19.3-11.99-22.26c-8.92-2.95-19.13,0.64-25.75,7.31c-5.53,5.59-8.97,13.45-8.36,21.29
			c0.61,7.84,5.64,15.4,12.99,18.19c-1.95,2.1-3.7,4.2-4.04,7.04c-0.15,1.21-0.13,2.69,0.15,3.88c0.76,3.27,2.65,6.77,5.94,7.91
			c-3.2,10.7,5.11,22.87,16.06,25.08C302.07,204.24,314.24,199.8,318.97,189.68z"/>
		<g>
			<path class="st1" d="M282.64,163.75c6-0.22,12.23,1.31,17.4,4.36c-6.52-5.33-14.39-8.99-22.66-10.53
				c6.98-5.17,12.94-11.71,17.42-19.15c-11.7,13.4-29.76,21.21-47.54,20.6l3.83,12.37c4.22-2.18,8.64-3.97,13.19-5.34
				c4.09-1.23,8.44-2.12,12.61-1.17c3.49,0.79,6.77,3.18,8.09,6.42C284.61,168.79,283.89,166.15,282.64,163.75z"/>
		</g>
	</g>
	<g class="st0">
		<g>
			<g>
				<path d="M253.56,132.88c-6.62,3.52-13.17,6.2-20.42,7.79l7.16,12.81c20.74-9.92,38.51-31.98,49.8-52.63
					C280.6,114.75,267.79,125.31,253.56,132.88z"/>
				<path d="M258.72,130.75l-3.47,3.22c0.05-0.18-0.32-0.21-0.31-0.01c0,0.2,0.2,0.35,0.36,0.45c9.46,5.84,20.3,4.99,30.25,3.75
					c2.35-0.29,4.73-0.61,6.8-1.65C281.5,138.67,264,137.4,258.72,130.75z"/>
				<path d="M268.56,124.21c-1.93-6.51-0.05-14.51,3.13-19.57c-5.32,5.25-7.68,13.84-6.12,22.29L268.56,124.21z"/>
			</g>
			<path d="M290.52,113.9c-2.37,1.23-4.59,1.95-7.31,2.2c-1.11,0.1-2.62,0.01-3.65-0.69l-0.12-0.11c-0.3,0.53-0.88,1.29-1.21,1.8
				c2.17,0.81,4.72,0.49,6.75-0.14C287.02,116.33,288.83,115.19,290.52,113.9z"/>
		</g>
		<g>
			<path d="M305.82,130.39c9.86,2.13,16.02-3.3,16.02-3.3l-29.92-10.56C291.91,116.53,295.96,128.26,305.82,130.39z"/>
			<path d="M322.15,126.45l-29.81-10.61c0,0,8.09-4.36,16.54-1.81C317.69,116.69,322.15,126.45,322.15,126.45z"/>
			<path d="M322.19,126.83c-0.03,0.1-0.35,0.26-0.35,0.26l-29.92-10.56c0,0-0.19-0.39-0.15-0.48c0.05-0.11,0.58-0.21,0.58-0.21
				l29.81,10.61C322.15,126.45,322.22,126.72,322.19,126.83z"/>
		</g>
		<g>
			<path d="M255.78,89.56c-9.71-2.74-16.19,2.29-16.19,2.29l29.2,12.42C268.79,104.27,265.48,92.31,255.78,89.56z"/>
			<path d="M239.23,92.47l29.08,12.46c0,0-8.35,3.84-16.62,0.77C243.07,102.49,239.23,92.47,239.23,92.47z"/>
			<path d="M239.22,92.09c0.04-0.1,0.37-0.24,0.37-0.24l29.2,12.42c0,0,0.16,0.4,0.12,0.49c-0.06,0.11-0.59,0.18-0.59,0.18
				l-29.08-12.46C239.23,92.47,239.18,92.2,239.22,92.09z"/>
		</g>
		<g>
			<path d="M288.09,79.89c-3.2,9.57,3.34,17.65,3.34,17.65l13.77-28.59C305.2,68.96,291.28,70.32,288.09,79.89z"/>
			<path d="M292.03,97.93l13.83-28.52c0,0,6.54,9.96,3.07,18.08C305.32,95.96,292.03,97.93,292.03,97.93z"/>
			<path d="M291.64,97.92c-0.1-0.04-0.22-0.38-0.22-0.38l13.77-28.59c0,0,0.35,0,0.42,0.05c0.08,0.06,0.24,0.4,0.24,0.4
				l-13.83,28.52C292.03,97.93,291.75,97.97,291.64,97.92z"/>
		</g>
	</g>
	<g>
		<g>
			<g>
				<path class="st1" d="M252.76,127.82c-6.62,3.52-13.17,6.2-20.42,7.79l7.16,12.81c20.74-9.92,38.51-31.98,49.8-52.63
					C279.81,109.68,267,120.24,252.76,127.82z"/>
				<path class="st1" d="M257.92,125.68l-3.47,3.22c0.05-0.18-0.32-0.21-0.31-0.01c0,0.2,0.2,0.35,0.36,0.45
					c9.46,5.84,20.3,4.99,30.25,3.75c2.35-0.29,4.73-0.61,6.8-1.65C280.71,133.6,263.2,132.34,257.92,125.68z"/>
				<path class="st1" d="M267.76,119.14c-1.93-6.51-0.05-14.51,3.13-19.57c-5.32,5.25-7.68,13.84-6.12,22.29L267.76,119.14z"/>
			</g>
			<path class="st1" d="M289.72,108.84c-2.37,1.23-4.59,1.95-7.31,2.2c-1.11,0.1-2.62,0.01-3.65-0.69l-0.12-0.11
				c-0.3,0.53-0.88,1.29-1.21,1.8c2.17,0.81,4.72,0.49,6.75-0.14C286.22,111.27,288.03,110.12,289.72,108.84z"/>
		</g>
		<g>
			<path class="st4" d="M305.02,125.32c9.86,2.13,16.02-3.3,16.02-3.3l-29.92-10.56C291.11,111.46,295.16,123.19,305.02,125.32z"/>
			<path class="st4" d="M321.35,121.38l-29.81-10.61c0,0,8.09-4.36,16.54-1.81C316.89,111.62,321.35,121.38,321.35,121.38z"/>
			<path class="st5" d="M321.39,121.77c-0.03,0.1-0.35,0.26-0.35,0.26l-29.92-10.56c0,0-0.19-0.39-0.15-0.48
				c0.05-0.11,0.58-0.21,0.58-0.21l29.81,10.61C321.35,121.38,321.43,121.65,321.39,121.77z"/>
		</g>
		<g>
			<path class="st4" d="M254.98,84.49c-9.71-2.75-16.19,2.29-16.19,2.29l29.2,12.42C267.99,99.2,264.69,87.24,254.98,84.49z"/>
			<path class="st4" d="M238.43,87.41l29.08,12.46c0,0-8.35,3.84-16.62,0.77C242.27,97.42,238.43,87.41,238.43,87.41z"/>
			<path class="st5" d="M238.42,87.02c0.04-0.1,0.37-0.24,0.37-0.24l29.2,12.42c0,0,0.16,0.4,0.12,0.49
				c-0.06,0.11-0.59,0.18-0.59,0.18l-29.08-12.46C238.43,87.41,238.38,87.13,238.42,87.02z"/>
		</g>
		<g>
			<path class="st4" d="M287.29,74.82c-3.2,9.57,3.34,17.65,3.34,17.65l13.77-28.59C304.4,63.89,290.49,65.26,287.29,74.82z"/>
			<path class="st4" d="M291.23,92.86l13.83-28.52c0,0,6.54,9.96,3.07,18.08C304.53,90.89,291.23,92.86,291.23,92.86z"/>
			<path class="st5" d="M290.84,92.85c-0.1-0.04-0.22-0.38-0.22-0.38l13.77-28.59c0,0,0.35,0,0.42,0.05c0.08,0.06,0.24,0.4,0.24,0.4
				l-13.83,28.52C291.23,92.86,290.95,92.9,290.84,92.85z"/>
		</g>
	</g>
	<g class="st0">
		<path d="M138.36,111.17l20.14-5.29c-8.45-8.73-17.51-23.4-16.26-35.29c0.38-3.58,1.31-6.83,5.65-12.49
			c-4.92,3.72-8.59,10.55-8.32,15.2c-3.52-8.48-11.67-16.6-21.23-20.43c6.6,3.65,10.58,8.46,13.87,13.72
			c7.33,11.71,11.21,25.07,8.34,39.07C140.17,107.49,139.68,109.44,138.36,111.17z"/>
		<ellipse transform="matrix(0.5044 -0.8635 0.8635 0.5044 26.742 145.3516)" cx="139.99" cy="49.38" rx="8.21" ry="8.21"/>
		<ellipse transform="matrix(0.9656 -0.2599 0.2599 0.9656 -6.4542 43.8146)" cx="162.48" cy="46.32" rx="8.14" ry="8.14"/>
		<path d="M129.94,32.97c1.14,4.35-1.46,8.8-5.81,9.94c-4.35,1.14-8.8-1.46-9.94-5.81c-1.14-4.35,1.46-8.8,5.81-9.94
			C124.35,26.03,128.8,28.62,129.94,32.97z"/>
		<ellipse transform="matrix(0.8696 -0.4938 0.4938 0.8696 -23.5966 71.0319)" cx="122.67" cy="80.19" rx="8.14" ry="8.14"/>
		<path d="M116.39,56.26c1.23,4.69-1.57,9.49-6.26,10.72c-4.69,1.23-9.49-1.57-10.72-6.26c-1.23-4.69,1.57-9.49,6.26-10.72
			C110.36,48.77,115.16,51.57,116.39,56.26z"/>
		<circle cx="153.96" cy="70.82" r="9.26"/>
		<path d="M144.77,27.84c0.65,2.49-0.84,5.05-3.33,5.7c-2.49,0.65-5.05-0.84-5.7-3.33s0.84-5.05,3.33-5.7
			C141.56,23.85,144.11,25.34,144.77,27.84z"/>
		<path d="M108.48,42.43c0.56,2.14-0.72,4.33-2.85,4.89c-2.14,0.56-4.33-0.72-4.89-2.85c-0.56-2.14,0.72-4.33,2.85-4.89
			C105.73,39.01,107.92,40.29,108.48,42.43z"/>
		<path d="M155.72,33.24c0.44,1.66-0.56,3.36-2.22,3.79c-1.66,0.44-3.36-0.56-3.79-2.22c-0.44-1.66,0.56-3.36,2.22-3.79
			C153.59,30.58,155.29,31.58,155.72,33.24z"/>
		<path d="M126.24,50.81c0.39,1.48-0.5,3-1.98,3.39s-3-0.5-3.39-1.98c-0.39-1.48,0.5-3,1.98-3.39
			C124.33,48.44,125.85,49.33,126.24,50.81z"/>
		<path d="M129.16,66.35c0.39,1.48-0.5,3-1.98,3.39c-1.48,0.39-3-0.5-3.39-1.98c-0.39-1.48,0.5-3,1.98-3.39
			C127.26,63.98,128.77,64.86,129.16,66.35z"/>
		<path d="M153.88,54.22c0.3,1.14-0.38,2.31-1.52,2.61c-1.14,0.3-2.31-0.38-2.61-1.52c-0.3-1.14,0.38-2.31,1.52-2.61
			C152.41,52.4,153.58,53.08,153.88,54.22z"/>
		<path d="M112.16,72.22c0.56,2.14-0.72,4.33-2.85,4.89c-2.14,0.56-4.33-0.72-4.89-2.85c-0.56-2.14,0.72-4.33,2.85-4.89
			C109.41,68.8,111.6,70.08,112.16,72.22z"/>
		<path d="M170.48,61.04c0.56,2.14-0.72,4.33-2.85,4.89c-2.14,0.56-4.33-0.72-4.89-2.85c-0.56-2.14,0.72-4.33,2.85-4.89
			C167.73,57.63,169.92,58.91,170.48,61.04z"/>
	</g>
	<g>
		<path class="st1" d="M134.38,114.41l20.14-5.29c-8.45-8.73-17.51-23.4-16.26-35.29c0.38-3.58,1.31-6.83,5.65-12.49
			c-4.92,3.72-8.59,10.55-8.32,15.2c-3.52-8.48-11.67-16.6-21.23-20.43c6.6,3.65,10.58,8.46,13.87,13.72
			c7.33,11.71,11.21,25.07,8.34,39.07C136.19,110.73,135.71,112.67,134.38,114.41z"/>
		<path class="st2" d="M143.95,50.54c1.15,4.38-1.47,8.87-5.85,10.02c-4.38,1.15-8.87-1.47-10.02-5.85
			c-1.15-4.38,1.47-8.87,5.85-10.02C138.31,43.53,142.8,46.15,143.95,50.54z"/>
		<path class="st2" d="M166.37,47.49c1.14,4.35-1.46,8.8-5.81,9.94c-4.35,1.14-8.8-1.46-9.94-5.81c-1.14-4.35,1.46-8.8,5.81-9.94
			S165.23,43.14,166.37,47.49z"/>
		<path class="st2" d="M125.96,36.21c1.14,4.35-1.46,8.8-5.81,9.94c-4.35,1.14-8.8-1.46-9.94-5.81c-1.14-4.35,1.46-8.8,5.81-9.94
			C120.37,29.26,124.82,31.86,125.96,36.21z"/>
		<path class="st2" d="M126.56,81.36c1.14,4.35-1.46,8.8-5.81,9.94c-4.35,1.14-8.8-1.46-9.94-5.81c-1.14-4.35,1.46-8.8,5.81-9.94
			C120.97,74.41,125.42,77.01,126.56,81.36z"/>
		<path class="st2" d="M112.41,59.5c1.23,4.69-1.57,9.49-6.26,10.72c-4.69,1.23-9.49-1.57-10.72-6.26s1.57-9.49,6.26-10.72
			C106.38,52.01,111.18,54.81,112.41,59.5z"/>
		<ellipse transform="matrix(0.898 -0.44 0.44 0.898 -17.2851 73.5462)" class="st2" cx="149.98" cy="74.05" rx="9.26" ry="9.26"/>
		<path class="st2" d="M140.79,31.08c0.65,2.49-0.84,5.05-3.33,5.7c-2.49,0.66-5.05-0.84-5.7-3.33c-0.65-2.49,0.84-5.05,3.33-5.7
			C137.58,27.09,140.13,28.58,140.79,31.08z"/>
		<circle class="st2" cx="100.63" cy="46.68" r="4"/>
		<path class="st2" d="M151.74,36.47c0.44,1.66-0.56,3.36-2.22,3.79c-1.66,0.44-3.36-0.56-3.79-2.22s0.56-3.36,2.22-3.79
			C149.61,33.82,151.31,34.81,151.74,36.47z"/>
		<path class="st2" d="M122.26,54.05c0.39,1.48-0.5,3-1.98,3.39c-1.48,0.39-3-0.5-3.39-1.98c-0.39-1.48,0.5-3,1.98-3.39
			C120.36,51.68,121.87,52.57,122.26,54.05z"/>
		<path class="st2" d="M125.18,69.58c0.39,1.48-0.5,3-1.98,3.39c-1.48,0.39-3-0.5-3.39-1.98c-0.39-1.48,0.5-3,1.98-3.39
			C123.28,67.22,124.79,68.1,125.18,69.58z"/>
		<path class="st2" d="M149.9,57.46c0.3,1.14-0.38,2.31-1.52,2.61c-1.14,0.3-2.31-0.38-2.61-1.52c-0.3-1.14,0.38-2.31,1.52-2.61
			C148.43,55.64,149.6,56.32,149.9,57.46z"/>
		<path class="st2" d="M108.18,75.46c0.56,2.14-0.72,4.33-2.85,4.89c-2.14,0.56-4.33-0.72-4.89-2.85c-0.56-2.14,0.72-4.33,2.85-4.89
			C105.43,72.04,107.62,73.32,108.18,75.46z"/>
		<path class="st2" d="M166.5,64.28c0.56,2.14-0.72,4.33-2.85,4.89c-2.14,0.56-4.33-0.72-4.89-2.85s0.72-4.33,2.85-4.89
			C163.75,60.87,165.94,62.15,166.5,64.28z"/>
	</g>
	<g class="st0">
		<path d="M114.88,45.25c-3.42,0.06-7.56,1.37-10.23,3.51c-1.93,1.55-4.62,4.93-4.73,7.36C98,47.47,89.91,40.41,80.99,39.92
			c-9.84-0.54-19.47,6.75-21.88,16.31c-2.41,9.56,2.42,20.39,11.02,25.21c-9.34,1-15.99,11.24-14.72,20.55
			c1.27,9.31,8.98,16.91,17.88,19.92c7.45,2.52,16.02,2.15,22.8-1.84c6.77-4,11.36-11.83,10.63-19.66c2.74,0.82,5.39,1.48,8.1,0.54
			c1.15-0.4,2.48-1.07,3.42-1.84c2.6-2.12,4.92-5.35,4.5-8.81c11.02-1.83,18.3-14.64,15.47-25.44S126.04,45.05,114.88,45.25z"/>
		<g>
			<path d="M107.54,89.28c-2.84-5.29-4.2-11.56-3.73-17.55c-1.92,8.2-1.75,16.87,0.5,24.99c-7.71-4-16.21-6.48-24.86-7.24
				c17.18,4.62,32.13,17.41,39.39,33.66l9.43-8.87c-3.81-2.83-7.37-6.01-10.59-9.5c-2.9-3.13-5.61-6.65-6.59-10.81
				c-0.82-3.48-0.12-7.48,2.21-10.09C111.21,85.29,109.15,87.1,107.54,89.28z"/>
		</g>
	</g>
	<g>
		<path class="st3" d="M110.9,48.49c-3.42,0.06-7.56,1.37-10.23,3.51c-1.93,1.55-4.62,4.93-4.73,7.36
			c-1.92-8.64-10.01-15.71-18.93-16.2c-9.84-0.54-19.47,6.75-21.88,16.31c-2.41,9.56,2.42,20.39,11.02,25.21
			c-9.34,1-15.99,11.24-14.72,20.55c1.27,9.31,8.98,16.91,17.88,19.92c7.45,2.52,16.02,2.15,22.8-1.85
			c6.77-4,11.36-11.83,10.63-19.66c2.74,0.82,5.39,1.48,8.1,0.54c1.15-0.4,2.48-1.07,3.42-1.84c2.6-2.12,4.92-5.35,4.5-8.81
			c11.02-1.83,18.3-14.64,15.47-25.44C131.4,57.28,122.06,48.29,110.9,48.49z"/>
		<g>
			<path class="st1" d="M103.56,92.52c-2.84-5.29-4.2-11.56-3.73-17.55c-1.92,8.2-1.75,16.87,0.5,24.99
				c-7.71-4-16.21-6.48-24.86-7.24c17.18,4.62,32.13,17.41,39.39,33.66l9.43-8.87c-3.81-2.83-7.37-6.01-10.59-9.5
				c-2.9-3.13-5.61-6.65-6.59-10.81c-0.82-3.48-0.12-7.48,2.21-10.09C107.23,88.53,105.17,90.34,103.56,92.52z"/>
		</g>
	</g>
	<g class="st0">
		<g>
			<g>
				<path d="M89.92,134.7c6.38,3.95,11.98,8.27,17.01,13.73l7.47-12.63c-19-12.94-47.01-17.2-70.53-16.57
					C60.64,120.44,76.21,126.2,89.92,134.7z"/>
				<path d="M85.48,131.31l4.53,1.38c-0.18,0.05-0.02,0.38,0.15,0.28s0.2-0.34,0.21-0.54c0.29-11.12-5.9-20.05-11.97-28.03
					c-1.43-1.88-2.9-3.78-4.85-5.05C80.86,107.63,88.57,123.4,85.48,131.31z"/>
				<path d="M74.87,126.09c-4.65,4.94-12.51,7.34-18.49,7.14c7.21,1.96,15.83-0.32,22.35-5.92L74.87,126.09z"/>
			</g>
			<path d="M54.92,112.3c2.25,1.43,3.99,2.99,5.57,5.21c0.65,0.91,1.33,2.26,1.24,3.5l-0.03,0.16c0.61-0.01,1.56,0.11,2.16,0.14
				c-0.39-2.29-1.95-4.32-3.52-5.76S56.88,113.11,54.92,112.3z"/>
		</g>
		<g>
			<path d="M61.47,90.78C58.36,81.19,50.57,78.6,50.57,78.6l5.92,31.17C56.49,109.77,64.59,100.37,61.47,90.78z"/>
			<path d="M49.85,78.65l5.82,31.1c0,0-7.84-4.8-9.88-13.39C43.66,87.41,49.85,78.65,49.85,78.65z"/>
			<path d="M50.17,78.42c0.1-0.02,0.4,0.17,0.4,0.17l5.92,31.17c0,0-0.24,0.36-0.34,0.37c-0.12,0.01-0.47-0.39-0.47-0.39l-5.82-31.1
				C49.85,78.65,50.05,78.45,50.17,78.42z"/>
		</g>
		<g>
			<path d="M51.35,154.57c2.51,9.77,10.12,12.84,10.12,12.84l-3.96-31.48C57.52,135.93,48.84,144.8,51.35,154.57z"/>
			<path d="M62.19,167.4L58.33,136c0,0,7.52,5.28,9.02,13.98C68.92,159.05,62.19,167.4,62.19,167.4z"/>
			<path d="M61.86,167.61c-0.11,0.02-0.39-0.2-0.39-0.2l-3.96-31.48c0,0,0.26-0.34,0.37-0.35c0.12-0.01,0.45,0.42,0.45,0.42
				l3.86,31.4C62.19,167.4,61.98,167.59,61.86,167.61z"/>
		</g>
		<g>
			<path d="M26.75,131.51c9.88-2.05,13.58-11.76,13.58-11.76l-31.64,2.47C8.69,122.22,16.87,133.55,26.75,131.51z"/>
			<path d="M40.35,119.03l-31.6,2.39c0,0,5.32-10.66,14.08-11.75C31.96,108.53,40.35,119.03,40.35,119.03z"/>
			<path d="M40.54,119.36c0.01,0.11-0.22,0.38-0.22,0.38l-31.64,2.47c0,0-0.18-0.31-0.17-0.39c0.01-0.1,0.23-0.41,0.23-0.41
				l31.6-2.39C40.35,119.03,40.53,119.25,40.54,119.36z"/>
		</g>
	</g>
	<g>
		<g>
			<g>
				<path class="st1" d="M85.94,137.94c6.38,3.95,11.98,8.27,17.01,13.73l7.47-12.63c-19-12.94-47.01-17.2-70.53-16.57
					C56.66,123.68,72.23,129.44,85.94,137.94z"/>
				<path class="st1" d="M81.5,134.55l4.53,1.38c-0.18,0.05-0.02,0.38,0.15,0.28c0.17-0.1,0.2-0.34,0.21-0.54
					c0.29-11.12-5.9-20.05-11.97-28.03c-1.43-1.88-2.9-3.78-4.85-5.05C76.88,110.87,84.59,126.64,81.5,134.55z"/>
				<path class="st1" d="M70.89,129.33c-4.65,4.94-12.51,7.34-18.49,7.14c7.21,1.96,15.83-0.32,22.35-5.92L70.89,129.33z"/>
			</g>
			<path class="st1" d="M50.94,115.53c2.25,1.43,3.99,2.99,5.57,5.21c0.65,0.91,1.33,2.26,1.24,3.5l-0.03,0.16
				c0.61-0.01,1.56,0.11,2.16,0.14c-0.39-2.29-1.95-4.32-3.52-5.76S52.9,116.35,50.94,115.53z"/>
		</g>
		<g>
			<path class="st4" d="M57.5,94.02c-3.12-9.59-10.91-12.18-10.91-12.18l5.92,31.17C52.51,113.01,60.61,103.61,57.5,94.02z"/>
			<path class="st4" d="M45.87,81.89l5.82,31.1c0,0-7.84-4.8-9.88-13.39C39.68,90.65,45.87,81.89,45.87,81.89z"/>
			<path class="st5" d="M46.19,81.66c0.1-0.02,0.4,0.17,0.4,0.17l5.92,31.17c0,0-0.24,0.36-0.34,0.37
				c-0.12,0.01-0.47-0.39-0.47-0.39l-5.82-31.1C45.87,81.89,46.07,81.69,46.19,81.66z"/>
		</g>
		<g>
			<path class="st4" d="M47.37,157.81c2.51,9.77,10.12,12.84,10.12,12.84l-3.96-31.48C53.54,139.16,44.87,148.04,47.37,157.81z"/>
			<path class="st4" d="M58.21,170.64l-3.86-31.4c0,0,7.52,5.28,9.02,13.98C64.94,162.29,58.21,170.64,58.21,170.64z"/>
			<path class="st5" d="M57.89,170.85c-0.11,0.02-0.39-0.2-0.39-0.2l-3.96-31.48c0,0,0.26-0.34,0.37-0.35
				c0.12-0.01,0.45,0.42,0.45,0.42l3.86,31.4C58.21,170.64,58,170.83,57.89,170.85z"/>
		</g>
		<g>
			<path class="st4" d="M22.77,134.74c9.88-2.05,13.58-11.76,13.58-11.76l-31.64,2.47C4.71,125.46,12.89,136.79,22.77,134.74z"/>
			<path class="st4" d="M36.37,122.27l-31.6,2.39c0,0,5.32-10.66,14.08-11.75C27.98,111.77,36.37,122.27,36.37,122.27z"/>
			<path class="st5" d="M36.56,122.6c0.01,0.11-0.22,0.38-0.22,0.38l-31.64,2.47c0,0-0.18-0.31-0.17-0.39
				c0.01-0.1,0.23-0.41,0.23-0.41l31.6-2.39C36.37,122.27,36.55,122.48,36.56,122.6z"/>
		</g>
	</g>
	<g class="st0">
		<path d="M223.09,121.24l13.09,16.19c4.49-11.29,14.14-25.58,25.49-29.32c3.42-1.13,6.76-1.61,13.7,0.02
			c-5.41-2.96-13.15-3.49-17.28-1.34c6.29-6.7,10.34-17.46,9.91-27.75c-0.62,7.51-3.37,13.12-6.81,18.28
			c-7.66,11.5-18.25,20.52-32.2,23.65C227.19,121.37,225.22,121.73,223.09,121.24z"/>
		<path d="M285.26,103.72c-3.52,2.85-8.69,2.3-11.54-1.22c-2.85-3.52-2.3-8.69,1.22-11.54c3.52-2.85,8.69-2.3,11.54,1.22
			C289.33,95.7,288.78,100.87,285.26,103.72z"/>
		<path d="M297.25,122.91c-3.5,2.83-8.62,2.28-11.45-1.21c-2.83-3.5-2.28-8.62,1.21-11.45c3.5-2.83,8.62-2.28,11.45,1.21
			C301.29,114.96,300.74,120.09,297.25,122.91z"/>
		<path d="M290.93,81.43c-3.5,2.83-8.62,2.28-11.45-1.21c-2.83-3.5-2.28-8.62,1.21-11.45c3.5-2.83,8.62-2.28,11.45,1.21
			C294.97,73.48,294.42,78.61,290.93,81.43z"/>
		<path d="M250.02,100.53c-3.5,2.83-8.62,2.28-11.45-1.21c-2.83-3.5-2.28-8.62,1.21-11.45c3.5-2.83,8.62-2.28,11.45,1.21
			C254.05,92.58,253.51,97.7,250.02,100.53z"/>
		<ellipse transform="matrix(0.1052 -0.9945 0.9945 0.1052 159.989 321.4402)" cx="258.61" cy="71.82" rx="8.78" ry="8.78"/>
		<path d="M272.12,126.08c-3.98,3.21-9.8,2.6-13.02-1.38c-3.21-3.98-2.6-9.8,1.38-13.02c3.98-3.21,9.8-2.6,13.02,1.38
			C276.71,117.04,276.09,122.87,272.12,126.08z"/>
		<path d="M301.7,92.85c-2.01,1.62-4.95,1.31-6.57-0.69c-1.62-2.01-1.31-4.95,0.69-6.57c2.01-1.62,4.95-1.31,6.57,0.69
			C304.02,88.28,303.71,91.22,301.7,92.85z"/>
		<path d="M273.49,65.75c-1.72,1.39-4.24,1.12-5.63-0.6s-1.12-4.24,0.6-5.63c1.72-1.39,4.24-1.12,5.63,0.6
			C275.48,61.84,275.21,64.36,273.49,65.75z"/>
		<path d="M301.28,105.05c-1.33,1.08-3.29,0.87-4.37-0.46c-1.08-1.33-0.87-3.29,0.46-4.37c1.33-1.08,3.29-0.87,4.37,0.46
			C302.82,102.02,302.62,103.97,301.28,105.05z"/>
		<path d="M273.15,85.39c-1.19,0.96-2.94,0.78-3.9-0.41c-0.96-1.19-0.78-2.94,0.41-3.9c1.19-0.96,2.94-0.78,3.9,0.41
			C274.52,82.68,274.34,84.43,273.15,85.39z"/>
		<path d="M260.18,94.44c-1.19,0.96-2.94,0.78-3.9-0.41c-0.96-1.19-0.78-2.94,0.41-3.9c1.19-0.96,2.94-0.78,3.9,0.41
			C261.56,91.73,261.37,93.47,260.18,94.44z"/>
		<path d="M281.39,111.99c-0.92,0.74-2.26,0.6-3-0.32c-0.74-0.92-0.6-2.26,0.32-3c0.92-0.74,2.26-0.6,3,0.32
			C282.45,109.9,282.31,111.25,281.39,111.99z"/>
		<path d="M247.85,81.35c-1.72,1.39-4.24,1.12-5.63-0.6c-1.39-1.72-1.12-4.24,0.6-5.63c1.72-1.39,4.24-1.12,5.63,0.6
			S249.56,79.96,247.85,81.35z"/>
		<path d="M281.99,129.93c-1.72,1.39-4.24,1.12-5.63-0.6c-1.39-1.72-1.12-4.24,0.6-5.63c1.72-1.39,4.24-1.12,5.63,0.6
			C283.97,126.02,283.71,128.54,281.99,129.93z"/>
	</g>
	<g>
		<path class="st1" d="M218.5,118.94l13.09,16.19c4.49-11.29,14.14-25.58,25.49-29.32c3.42-1.13,6.76-1.61,13.7,0.02
			c-5.41-2.96-13.15-3.49-17.28-1.34c6.29-6.7,10.34-17.46,9.91-27.75c-0.62,7.51-3.37,13.12-6.81,18.28
			c-7.66,11.5-18.25,20.52-32.2,23.65C222.6,119.08,220.63,119.43,218.5,118.94z"/>
		
			<ellipse transform="matrix(0.8417 -0.54 0.54 0.8417 -7.7008 163.8195)" class="st2" cx="275.51" cy="95.04" rx="8.21" ry="8.21"/>
		<path class="st2" d="M292.66,120.62c-3.5,2.83-8.62,2.28-11.45-1.21c-2.83-3.5-2.28-8.62,1.21-11.45
			c3.5-2.83,8.62-2.28,11.45,1.21C296.7,112.66,296.16,117.79,292.66,120.62z"/>
		<path class="st2" d="M286.34,79.14c-3.5,2.83-8.62,2.28-11.45-1.21c-2.83-3.5-2.28-8.62,1.21-11.45c3.5-2.83,8.62-2.28,11.45,1.21
			C290.38,71.19,289.84,76.31,286.34,79.14z"/>
		<path class="st2" d="M245.43,98.23c-3.5,2.83-8.62,2.28-11.45-1.21c-2.83-3.5-2.28-8.62,1.21-11.45c3.5-2.83,8.62-2.28,11.45,1.21
			C249.47,90.28,248.92,95.41,245.43,98.23z"/>
		
			<ellipse transform="matrix(0.9858 -0.1681 0.1681 0.9858 -8.0726 43.6952)" class="st2" cx="254.02" cy="69.52" rx="8.78" ry="8.78"/>
		<path class="st2" d="M267.53,123.78c-3.98,3.21-9.8,2.6-13.02-1.38c-3.21-3.98-2.6-9.8,1.38-13.02c3.98-3.21,9.8-2.6,13.02,1.38
			C272.12,114.74,271.5,120.57,267.53,123.78z"/>
		<path class="st2" d="M297.12,90.55c-2.01,1.62-4.95,1.31-6.57-0.69c-1.62-2.01-1.31-4.95,0.69-6.57c2.01-1.62,4.95-1.31,6.57,0.69
			C299.43,85.99,299.12,88.93,297.12,90.55z"/>
		<path class="st2" d="M268.91,63.46c-1.72,1.39-4.24,1.12-5.63-0.6c-1.39-1.72-1.12-4.24,0.6-5.63c1.72-1.39,4.24-1.12,5.63,0.6
			C270.89,59.55,270.63,62.07,268.91,63.46z"/>
		<path class="st2" d="M296.69,102.76c-1.33,1.08-3.29,0.87-4.37-0.46c-1.08-1.33-0.87-3.29,0.46-4.37
			c1.33-1.08,3.29-0.87,4.37,0.46C298.24,99.72,298.03,101.68,296.69,102.76z"/>
		<path class="st2" d="M268.56,83.09c-1.19,0.96-2.94,0.78-3.9-0.41c-0.96-1.19-0.78-2.94,0.41-3.9c1.19-0.96,2.94-0.78,3.9,0.41
			C269.94,80.38,269.75,82.13,268.56,83.09z"/>
		<path class="st2" d="M255.6,92.14c-1.19,0.96-2.94,0.78-3.9-0.41c-0.96-1.19-0.78-2.94,0.41-3.9c1.19-0.96,2.94-0.78,3.9,0.41
			C256.97,89.43,256.79,91.18,255.6,92.14z"/>
		<path class="st2" d="M276.8,109.69c-0.92,0.74-2.26,0.6-3-0.32c-0.74-0.92-0.6-2.26,0.32-3c0.92-0.74,2.26-0.6,3,0.32
			C277.86,107.61,277.72,108.95,276.8,109.69z"/>
		<path class="st2" d="M243.26,79.05c-1.72,1.39-4.24,1.12-5.63-0.6c-1.39-1.72-1.12-4.24,0.6-5.63c1.72-1.39,4.24-1.12,5.63,0.6
			C245.24,75.14,244.98,77.66,243.26,79.05z"/>
		<path class="st2" d="M277.4,127.64c-1.72,1.39-4.24,1.12-5.63-0.6c-1.39-1.72-1.12-4.24,0.6-5.63c1.72-1.39,4.24-1.12,5.63,0.6
			C279.39,123.73,279.12,126.25,277.4,127.64z"/>
	</g>
	<g class="st0">
		<path d="M278.08,79.52c-1.24-3.19-3.9-6.62-6.84-8.37c-2.13-1.28-6.23-2.62-8.55-1.89c7.44-4.79,11.26-14.83,8.63-23.37
			c-2.91-9.42-13.08-15.92-22.88-14.87c-9.8,1.05-18.28,9.34-19.83,19.08c-4.18-8.42-16.09-11.1-24.38-6.68
			c-8.3,4.42-12.74,14.29-12.48,23.68c0.22,7.86,3.54,15.78,9.64,20.74c6.1,4.97,15.04,6.55,22.13,3.16
			c0.18,2.86,0.48,5.57,2.31,7.78c0.78,0.94,1.86,1.95,2.91,2.57c2.89,1.71,6.73,2.76,9.82,1.16c5.54,9.7,20.08,12.09,29.23,5.69
			C276.94,101.8,282.13,89.93,278.08,79.52z"/>
		<g>
			<path d="M234.24,87.92c3.98-4.49,9.39-7.95,15.16-9.58c-8.35,1.04-16.43,4.21-23.26,9.14c1.08-8.62,0.45-17.45-1.83-25.83
				c1.62,17.72-5.19,36.18-17.91,48.62l11.6,5.77c1.33-4.56,3.09-8.99,5.24-13.23c1.93-3.81,4.3-7.57,7.85-9.93
				c2.98-1.98,6.98-2.71,10.23-1.43C239.25,89.97,236.84,88.67,234.24,87.92z"/>
		</g>
	</g>
	<g>
		<path class="st3" d="M273.66,76.92c-1.24-3.19-3.9-6.62-6.84-8.37c-2.13-1.28-6.23-2.62-8.55-1.89
			c7.44-4.79,11.26-14.83,8.63-23.37c-2.9-9.42-13.08-15.92-22.88-14.87c-9.8,1.05-18.28,9.34-19.83,19.08
			c-4.18-8.42-16.09-11.1-24.38-6.68c-8.3,4.42-12.74,14.29-12.48,23.68c0.22,7.86,3.54,15.78,9.64,20.74
			c6.1,4.97,15.04,6.55,22.13,3.16c0.18,2.86,0.48,5.57,2.31,7.78c0.78,0.94,1.86,1.95,2.91,2.57c2.89,1.71,6.73,2.76,9.82,1.16
			c5.54,9.7,20.08,12.09,29.23,5.69C272.53,99.19,277.72,87.32,273.66,76.92z"/>
		<g>
			<path class="st1" d="M229.82,85.31c3.98-4.49,9.39-7.95,15.16-9.58c-8.35,1.04-16.43,4.21-23.26,9.14
				c1.08-8.62,0.45-17.45-1.83-25.83c1.62,17.72-5.19,36.18-17.91,48.62l11.6,5.77c1.33-4.56,3.09-8.99,5.24-13.23
				c1.93-3.81,4.3-7.57,7.85-9.93c2.98-1.98,6.98-2.71,10.23-1.43C234.83,87.36,232.42,86.06,229.82,85.31z"/>
		</g>
	</g>
	<g class="st0">
		<g>
			<g>
				<path d="M185.53,87.14c-1.5,7.35-3.6,14.11-6.98,20.71l14.44,2.62c5.55-22.31-0.17-50.06-8.92-71.9
					C188.75,54.73,188.74,71.33,185.53,87.14z"/>
				<path d="M187.17,81.8l0.28,4.72c-0.11-0.15-0.36,0.11-0.21,0.24c0.15,0.12,0.39,0.07,0.58,0.01
					c10.53-3.59,16.76-12.49,22.14-20.95c1.27-2,2.54-4.03,3.05-6.29C207.77,69.25,195.66,81.95,187.17,81.8z"/>
				<path d="M188.38,70.04c-6.24-2.65-11.23-9.19-13.11-14.86c0.66,7.45,5.79,14.73,13.31,18.91L188.38,70.04z"/>
			</g>
			<path d="M194.4,46.54c-0.56,2.6-1.42,4.78-2.95,7.04c-0.63,0.93-1.66,2.03-2.85,2.38l-0.16,0.02c0.22,0.57,0.43,1.5,0.62,2.08
				c2.01-1.16,3.38-3.33,4.19-5.3C194.05,50.79,194.31,48.66,194.4,46.54z"/>
		</g>
		<g>
			<path d="M216.85,45.23c7.92-6.25,7.64-14.45,7.64-14.45l-27.19,16.37C197.31,47.14,208.94,51.48,216.85,45.23z"/>
			<path d="M224.2,30.12l-27.15,16.25c0,0,1.78-9.01,9.13-13.91C213.84,27.35,224.2,30.12,224.2,30.12z"/>
			<path d="M224.52,30.34c0.06,0.09-0.02,0.44-0.02,0.44l-27.19,16.37c0,0-0.42-0.1-0.46-0.19c-0.06-0.11,0.2-0.58,0.2-0.58
				l27.15-16.25C224.2,30.12,224.46,30.24,224.52,30.34z"/>
		</g>
		<g>
			<path d="M153.52,57.86c-8.29,5.74-8.54,13.95-8.54,13.95l28.16-14.63C173.14,57.18,161.81,52.12,153.52,57.86z"/>
			<path d="M145.23,72.48l28.12-14.51c0,0-2.35,8.88-9.98,13.31C155.4,75.89,145.23,72.48,145.23,72.48z"/>
			<path d="M144.93,72.24c-0.05-0.09,0.05-0.43,0.05-0.43l28.16-14.63c0,0,0.41,0.13,0.45,0.22c0.05,0.11-0.24,0.57-0.24,0.57
				l-28.12,14.51C145.23,72.48,144.99,72.34,144.93,72.24z"/>
		</g>
		<g>
			<path d="M166.61,26.78c5.35,8.55,15.74,8.66,15.74,8.66L169.06,6.62C169.06,6.62,161.27,18.23,166.61,26.78z"/>
			<path d="M183.04,35.21L169.83,6.4c0,0,11.85,1.3,15.91,9.13C189.97,23.7,183.04,35.21,183.04,35.21z"/>
			<path d="M182.78,35.51c-0.1,0.05-0.43-0.07-0.43-0.07L169.06,6.62c0,0,0.23-0.27,0.31-0.3c0.1-0.03,0.46,0.07,0.46,0.07
				l13.2,28.81C183.04,35.21,182.89,35.46,182.78,35.51z"/>
		</g>
	</g>
	<g>
		<g>
			<g>
				<path class="st1" d="M181.11,84.53c-1.5,7.35-3.6,14.11-6.98,20.71l14.44,2.62c5.55-22.31-0.17-50.06-8.92-71.9
					C184.33,52.12,184.32,68.72,181.11,84.53z"/>
				<path class="st1" d="M182.75,79.19l0.28,4.72c-0.11-0.15-0.36,0.11-0.21,0.24c0.15,0.12,0.39,0.07,0.58,0.01
					c10.53-3.59,16.76-12.49,22.14-20.95c1.27-2,2.54-4.03,3.05-6.29C203.35,66.64,191.24,79.34,182.75,79.19z"/>
				<path class="st1" d="M183.96,67.43c-6.24-2.65-11.23-9.19-13.11-14.87c0.66,7.45,5.79,14.73,13.31,18.91L183.96,67.43z"/>
			</g>
			<path class="st1" d="M189.98,43.93c-0.56,2.6-1.42,4.78-2.95,7.04c-0.63,0.93-1.66,2.03-2.85,2.38l-0.16,0.02
				c0.22,0.57,0.43,1.5,0.62,2.08c2.01-1.16,3.38-3.33,4.19-5.3C189.63,48.18,189.9,46.05,189.98,43.93z"/>
		</g>
		<g>
			<path class="st4" d="M212.44,42.62c7.92-6.25,7.64-14.45,7.64-14.45L192.9,44.53C192.9,44.53,204.52,48.87,212.44,42.62z"/>
			<path class="st6" d="M219.79,27.51l-27.15,16.25c0,0,1.78-9.01,9.13-13.91C209.42,24.74,219.79,27.51,219.79,27.51z"/>
			<path class="st5" d="M220.11,27.73c0.06,0.09-0.02,0.44-0.02,0.44L192.9,44.53c0,0-0.42-0.1-0.46-0.19
				c-0.06-0.11,0.2-0.58,0.2-0.58l27.15-16.25C219.79,27.51,220.04,27.63,220.11,27.73z"/>
		</g>
		<g>
			<path class="st4" d="M149.1,55.25c-8.29,5.74-8.54,13.95-8.54,13.95l28.16-14.63C168.72,54.57,157.39,49.51,149.1,55.25z"/>
			<path class="st4" d="M140.82,69.87l28.12-14.51c0,0-2.35,8.88-9.98,13.31C150.99,73.28,140.82,69.87,140.82,69.87z"/>
			<path class="st5" d="M140.51,69.63c-0.05-0.09,0.05-0.43,0.05-0.43l28.16-14.63c0,0,0.41,0.13,0.45,0.22
				c0.05,0.11-0.24,0.57-0.24,0.57l-28.12,14.51C140.82,69.87,140.57,69.73,140.51,69.63z"/>
		</g>
		<g>
			<path class="st4" d="M162.19,24.17c5.35,8.55,15.74,8.66,15.74,8.66L164.64,4.01C164.64,4.01,156.85,15.62,162.19,24.17z"/>
			<path class="st4" d="M178.62,32.6l-13.2-28.81c0,0,11.85,1.3,15.91,9.13C185.56,21.09,178.62,32.6,178.62,32.6z"/>
			<path class="st5" d="M178.37,32.9c-0.1,0.05-0.43-0.07-0.43-0.07L164.64,4.01c0,0,0.23-0.27,0.31-0.3
				c0.1-0.03,0.46,0.07,0.46,0.07l13.2,28.81C178.62,32.6,178.47,32.85,178.37,32.9z"/>
		</g>
	</g>
	<g>
		<circle class="st7" cx="180.92" cy="190.27" r="85.63"/>
		<circle class="st8" cx="172.52" cy="181.72" r="85.63"/>
		<path class="st3" d="M86.88,181.72c0,47.29,38.34,85.63,85.63,85.63V96.09C125.22,96.09,86.88,134.43,86.88,181.72z"/>
		<g>
			<path class="st9" d="M228.28,221.94c-0.94-0.44-1.79-1.09-2.68-1.61c-0.65-0.38-1.51-0.39-2.23-0.46
				c-1.71-0.16-3.2-0.46-4.81-1.01c-1.31-0.45-2.53-1.02-3.82-1.36c0.14-0.5,0.16-1.09,0.01-1.83c-0.41-2.09-2.31-4.15-4.5-3.61
				c-3.55-0.87-7.25-1.84-9.09-5.26c-1.52-2.84-5.01-0.79-7.3-0.49c-2.06,0.27-3.12-1.85-5.05-1.86c-1.76-0.01-3.64-0.08-5.39,0.22
				c-2.51,0.44-4.05,3.14-6.71,3.22c-0.7,0.02-1.45-0.22-2.17-0.29c-0.23-0.4-0.7-0.63-1.18-0.28c-0.08,0.06-0.16,0.1-0.24,0.15
				c-0.56-0.04-1.12-0.05-1.69-0.03c-1.77,0.06-3.14,0.04-4.01-2.05c-0.25-0.59,0.62-2.05,0.82-2.71c0.3-0.99-0.39-2.4-1.39-2.71
				c-1.83-0.57-3.59-0.14-5.39-1.04c-1.41-0.71,0.5-3.95,0.71-5.14c0.08-0.45-0.12-1.04-0.64-1.13c-2.43-0.41-3.7,0.07-5.8,1.46
				c-1.27,0.84-2.63,1.99-4.2,2.15c-2.59,0.26-4.35-1.52-5.03-3.82c-1.06-3.56-0.29-8.14,3.44-9.64c2.76-1.11,6.12-0.74,9.02-0.57
				c0.54,0.03,0.86-0.44,0.92-0.92c0.35-2.96,6.8-0.07,8.43,0.3c0.67,2.15,2.06,5.33,4.03,5.33c1.23,0,1.59-1.38,1.77-2.33
				c0.45-2.33-2.01-4.16-1.23-6.05c0.35-0.38,0.7-0.75,1.04-1.13c2-0.66,3.87-1.5,5.51-2.88c1.57-0.39,2.85-1.42,2.77-3.19
				c0.61-0.87,1.19-1.75,1.85-2.57c2.04-2.53,5.05-4.04,8.06-5.09c0.43-0.15,0.84-0.64,0.64-1.13c-0.91-2.26,3.71-3.48,6.01-3.74
				c0.02,0.14,0.05,0.28,0.09,0.44c0.08,0.36,0.5,0.72,0.88,0.67c2.6-0.33,4.85-1.6,7.38-2.22c1.13-0.34,0.66-2.05-0.49-1.77
				c-2.56,0.77-3.87-1.42-5.72-2.64c-0.88-0.58-1.81-0.95-2.79-1.23c0.57-0.43,1.11-0.86,1.68-1.22c0.85-0.24,1.71-0.43,2.57-0.61
				c0.21,0.02,0.42,0.05,0.63,0.09c0.03,0.01,0.06,0.01,0.08,0.02c-0.44,0.03-0.8,0.5-0.8,0.91c0,0.54,0.42,0.86,0.92,0.92
				c0.33,0.04,0.78,0.27,1.13,0.47c1.02,0.6,1.94-0.98,0.93-1.58c-0.25-0.15-0.5-0.26-0.75-0.37c0.03,0.01,0.06,0.01,0.08,0.02
				c0.68,0.15,1.11-0.36,1.13-0.88c0.56-0.02,1.13-0.03,1.69-0.03c0.95,0,1.89,0.08,2.82,0.32c0.37,0.09,0.53,0.27,0.58,0.48
				c-0.03,0.12-0.05,0.26-0.03,0.41c-0.24,0.78-1.34,1.78-1.65,2.09c-0.6,0.6-0.13,1.51,0.65,1.57c2.25,0.16,4.16,1.31,6.31,1.86
				c0.78,0.2,1.44-0.64,1.04-1.35c-0.56-0.98-1.69-1.63-2.69-2.32c-0.01-0.35-0.21-0.71-0.62-0.87c-0.47-0.11-0.81-0.38-1.03-0.8
				c0.6-1.86,1-4.05-0.39-5.61c-1.76-1.99-4.13-2.79-5.7-4.94c-0.49-1.97-1.18-3.88-2.23-5.69c-0.34-0.59-1.25-0.61-1.58,0
				c-1.22,2.21-3.05,0.85-4.53-0.62c-0.02-0.36,0.01-0.74,0.1-1.14c0.11-0.5-0.14-0.97-0.64-1.13c-0.38-0.12-0.75-0.21-1.14-0.3
				c-0.43-0.28-0.87-0.55-1.32-0.81c-0.07-0.16-0.19-0.31-0.39-0.4c-0.63-0.31-1.38-0.72-2.15-0.95c-0.32-0.13-0.64-0.24-0.98-0.31
				c-0.36-0.07-0.69,0.09-0.91,0.33c-0.09,0.04-0.17,0.08-0.26,0.14c-0.57-0.38-1.45-0.13-1.45,0.71c0,0.22,0,0.43,0,0.65
				c-0.96,1.1-1.76,2.49-1.72,3.82c0.02,0.54,0.35,1.03,0.65,1.45c1.23,1.8-1.51,3.8-2.7,4.79c-0.89,0.73-1.68,1.51-2.22,2.53
				c-0.25,0.47-0.44,0.97-0.65,1.45c-0.08,0.16-0.16,0.33-0.24,0.49c-0.37,1.02-1.14,0.9-2.31-0.35c0.04-2.08,0.51-3.54-1.73-4.5
				c-1-0.43-2.08-0.82-3.15-1.24c-0.24-0.14-0.5-0.26-0.78-0.36c-0.07-0.03-0.15-0.04-0.22-0.04c-2.19-0.92-4.27-2.07-5.59-4.05
				c-3.19-4.8,8.44-9.82,12.21-10.78c-0.09,0.27-0.2,0.53-0.31,0.73c-0.31,0.59,0.07,1.41,0.79,1.38c1.35-0.06,2.56,0.13,3.83,0.55
				c0.98,0.33,1.65-1.23,0.71-1.68c-0.64-0.31-1.16-0.65-1.56-1.08c-0.01-0.08-0.02-0.17-0.06-0.26c-0.11-0.27-0.21-0.53-0.31-0.79
				c-0.06-0.27-0.02-0.49,0.08-0.7c1.02,0.71,2.5-0.54,3.2-1.11c1.27-1.02,1.05-4.4,2.99-4.39c0.19,0,0.35-0.05,0.48-0.13
				c0.07,0.02,0.14,0.03,0.21,0.05c0.21,0.27,0.59,0.37,0.94,0.3c1.26,0.5,2.21,1.39,1.51,2.76c-0.44,0.87,0.42,1.61,1.26,1.26
				c1.48-0.63,2-0.28,1.33,1.06c-0.66,1.33-2.14,1.94-3.54,2.03c-1,0.06-1.29,1.53-0.24,1.8c3.51,0.9,6.28,3.58,9.61,4.95
				c0.57,0.24,1.04-0.23,1.12-0.75c0.04,0.03,0.08,0.05,0.12,0.07c0.85,0.6,1.57-0.52,1.26-1.26c-0.7-1.66-1.94-3.16-2.5-4.87
				c0.87,0.67,1.63,1.44,2.23,2.44c0.35,0.59,1.23,0.6,1.58,0c1.27-2.16,0.19-3.49-1.7-4.73c-2.03-1.33-0.5-1.52-1.17-3.13
				c-0.55-1.31-1.38-1.96-2.63-2.65c-2.79-1.53-5.6-4.86-8.9-5.22c-1.36-0.15-2.68,0.02-3.74,0.53c0.32-0.49,0.25-1.34-0.46-1.45
				c-8.11-1.23,0.58,7.7-4.28,8.88c-0.06-0.42-0.12-0.83-0.18-1.25c-0.05-0.39-0.52-0.68-0.88-0.67c-0.55,0.01-1.37-0.41-2.1-0.8
				c1.07-2.29,1.57-5.08,4.09-6.14c1.07-0.45,0.7-2.02-0.49-1.77c-1.15,0.24-2.29,0.49-3.46,0.65c-0.58,0.08-0.76-0.35-1.19-0.95
				c-0.33-0.47-1-0.64-1.44-0.19c-0.85,0.88-1.64,1.8-2.33,2.81c-0.26,0.38-0.11,1.06,0.33,1.26c0.97,0.43,1.77,0.61,2.58,0.54
				c-0.82,1.57-2.2,2.66-4.11,3.03c-0.52,0.1-0.73,0.67-0.64,1.13c0.27,1.38-2.89,1.28-4.97,1.27c-0.19-0.63-0.37-1.26-0.56-1.89
				c0.19,0.11,0.42,0.14,0.68,0.09c1.07-0.2,2.14-0.38,3.2-0.58c0.75-0.14,0.79-1.05,0.4-1.53c-0.27-0.64-0.36-1.21-0.3-1.7
				c0.25-0.53,0.56-1.02,1.03-1.52c0.26-0.28,0.31-0.59,0.23-0.86c0.07-0.05,0.14-0.11,0.2-0.16c0.7-0.57-0.05-1.87-0.89-1.53
				c-0.92,0.37-1.65,0.9-2.16,1.54c-0.42,0.18-0.86,0.25-1.32,0.04c-1.04-0.46-0.84-1.43-1.06-2.27c-0.22-0.85-0.98-1.34-1.77-1.56
				c-2.12-0.59-4.57,1.19-6.55,1.95c-0.06,0.02-0.12,0.04-0.18,0.06c-0.08,0.03-0.15,0.06-0.22,0.08c0,0,0,0,0,0.01
				c-0.07,0.03-0.15,0.05-0.22,0.09c-0.96,0.42-0.27,1.99,0.71,1.68c0.11-0.04,0.22-0.08,0.33-0.12c0.6-0.18,1.19-0.24,1.78-0.2
				c-0.28,0.95-0.21,1.82,0.17,2.63c-0.23-0.04-0.46-0.09-0.68-0.15c-0.53-0.15-1.23,0.29-1.16,0.88c0.32,2.9,2.72,2.66,5.02,2.59
				c-0.12,0.26-0.25,0.52-0.38,0.78c-0.2,0.21-0.39,0.44-0.57,0.68c-0.15-0.01-0.29,0.02-0.43,0.1c-1.69-0.33-3.3-0.49-5.05-0.26
				c0,0-0.01,0-0.01,0l0,0c-0.08,0.01-0.16,0.02-0.24,0.03c-0.11,0.02-0.2,0.05-0.28,0.09c-0.01,0-0.02,0-0.02-0.01
				c-0.01-0.01-0.02-0.03-0.03-0.04c0.2-0.28,0.4-0.57,0.64-0.85c0.27-0.3,0.38-0.75,0.14-1.11c-1.06-1.64-2.49-2.33-4.25-2.29
				c-0.1-0.15-0.19-0.31-0.26-0.48c-0.22-0.41-0.56-0.52-0.88-0.45c-0.01-0.07-0.02-0.14-0.04-0.21c-0.12-0.49-0.65-0.76-1.13-0.64
				c-1.92,0.5-3.55,0.59-5.14,0.34c-0.16-0.13-0.37-0.21-0.58-0.23c-0.22-0.02-0.43-0.03-0.63-0.04c-0.87-0.23-1.74-0.57-2.66-1
				c-0.02-0.23-0.05-0.45-0.09-0.67c0.76-0.57,0.17-1.88-0.8-1.61c-0.22,0.06-0.43,0.12-0.65,0.18c-0.22,0.04-0.43,0.11-0.64,0.18
				c-3.76,1.06-7.69,2.3-10.47,5.11c-0.18,0.18-0.25,0.42-0.24,0.65c-0.38,0.36-0.78,0.69-1.19,1.01c-0.27-0.32-0.74-0.47-1.14-0.21
				c-1.06,0.68-2.11,1.37-3.16,2.07c-0.13-0.02-0.26-0.02-0.4,0.02c-0.41,0.13-0.68,0.38-0.99,0.67c-0.43,0.42-0.32,0.96,0.03,1.28
				c-4.13,2.29-7.96,5.42-9.9,9.77c-0.01,0.02-0.02,0.04-0.03,0.05c0,0,0.01,0,0.01,0c-0.03,0.07-0.07,0.14-0.1,0.22
				c-0.21,0.49,0.09,0.89,0.5,1.05c-0.38,0.5-0.76,1-1.13,1.5c-0.71,0.95,0.89,1.86,1.58,0.93c0.83-1.11,1.66-2.19,2.42-3.31
				c0.31,0.21,0.74,0.23,1.08-0.14c0.13-0.14,0.26-0.27,0.38-0.41c0.28,0.24,0.71,0.32,1.1,0.05c0.28,0.16,0.65,0.21,0.95,0.06
				c0.34-0.17,0.68-0.33,1.02-0.5c0.15,0.12,0.33,0.2,0.55,0.19c0.06,0,0.13,0,0.19,0c-0.49,0.9,0.74,1.68,1.48,1.05
				c0.13-0.12,0.26-0.24,0.38-0.36c0.06,0.21,0.13,0.43,0.2,0.64c-0.05,0.99-0.08,1.97-0.09,2.96c0,0,0,0,0,0.01
				c-0.19,0.06-0.36,0.2-0.47,0.45c-0.03,0.07-0.06,0.15-0.09,0.22l0,0c0,0,0,0.01,0,0.01c-0.39,0.9-0.73,1.8-1.02,2.75
				c-0.09,0.3,0.01,0.59,0.19,0.81c-0.42,0.16-0.71,0.67-0.63,1.14c0.04,0.4,0.08,0.81,0.11,1.21c0.01,0.34,0.23,0.62,0.52,0.78
				c-0.01,0.05-0.02,0.1-0.03,0.15c-0.01,0.01-0.02,0.01-0.04,0.02c-0.34,0.17-0.56,0.68-0.42,1.04c0.07,0.18,0.14,0.4,0.21,0.64
				c-0.03,0.24-0.07,0.48-0.1,0.72c-0.03,0.29,0.1,0.52,0.3,0.68c-0.05,0.71-0.06,1.43-0.01,2.14c-0.21,0.49-0.6,0.85-1.26,0.92
				c-0.63,0.07-1.23,0.74-0.79,1.38c2.51,3.66,0.63,7.07-1.28,10.49c-0.93,1.66-1.67,3.25-2.2,4.95c-0.35,0.1-0.62,0.39-0.58,0.84
				c0.03,0.33,0.07,0.66,0.11,0.99c-0.08,0.4-0.16,0.81-0.22,1.24c-0.33,2.34-0.17,4.77,1.17,6.77c0.75,1.13,2.08,1.74,3.21,2.51
				c0.66,1.09,1.08,2.24,1.45,3.41c-0.45,4.04,3.94,8.42,5.48,11.76c0.45,0.98,1.9,0.26,1.68-0.71c-0.58-2.51-2.13-4.39-3.46-6.55
				c-0.72-1.17-1.16-2.45-1.57-3.75c0.15,0.06,0.32,0.08,0.49,0.06c0.53,0.22,1.04,0.58,1.51,0.99c0.59,1.68,1.61,3.02,2.77,4.28
				c0.93,2.06,2.8,4.2,4.57,5.19c0.54,0.86,1,1.66,1.37,2.53c0,0.15,0.01,0.31,0.01,0.46c0.07,2.06,0.15,3.92,2.02,3.65
				c1.17,0.89,2.83,1.4,3.93,1.81c3.05,1.11,5.59,1.6,8.83,1.65c3.9,0.06,6.17,2.38,9.61,3.68c3.39,1.29,5.73,3.33,8.67,5.28
				c1.85,1.23,3.82,1.46,5.66,0.56c0.11,0.04,0.24,0.05,0.37,0.03c0.45,0.04,0.9,0.09,1.35,0.16c-0.08,0.21-0.07,0.45,0.12,0.7
				c0.84,1.11,0.96,2.49,0.86,3.87c-0.97,1.25-2.5,2.39-3.26,3.39c-0.59,0.78-0.88,1.45-1.15,2.37c-0.45,1.52,0.55,2.23-0.4,3.92
				c-0.26,0.47-0.08,0.96,0.33,1.26c0.05,0.04,0.1,0.07,0.16,0.11c0.13,0.33,0.43,0.58,0.83,0.57c0.67,0.44,1.33,0.86,1.94,1.31
				c1.36,1.66,2.97,4.32,3.45,4.94c1.24,1.58,2.77,2.24,4.56,3.06c2.07,0.95,2.87,2.34,3.25,4.38c-0.36,1.04-0.46,2.25-0.59,3.17
				c-0.27,1.91-0.35,3.84-0.55,5.75c-0.38,1.27-0.76,2.54-1.07,3.83c-0.08,0.35-0.14,0.87-0.2,1.46c-0.75,1.6-1.46,3.03-1.48,4.76
				c-0.29,0.17-0.42,0.46-0.42,0.77c-0.09,0.13-0.16,0.28-0.17,0.47c-0.04,0.72-0.02,1.43,0,2.15c0.01,0.43,0.28,0.75,0.67,0.88
				c0.79,0.27,1.47,0.37,2.31,0.34c0.63-0.02,1-0.57,0.88-1.16c0.31-0.5,0.62-1,0.93-1.5c0.23-0.23,0.44-0.46,0.68-0.68
				c0.37-0.36,0.32-0.86,0.05-1.2c0.25-0.09,0.47-0.29,0.56-0.58c1.02-0.62,1.83-1.5,2.64-2.37c0.3,0.15,0.66,0.12,0.96-0.22
				c0.91-1.03,2.03-1.72,3.24-2.26c0.32,0.31,0.81,0.41,1.21-0.04c0.94-1.06,1.24-1.93,2.61-2.35c0.21,0.02,0.41-0.04,0.59-0.17
				c0.62-0.17,1.23-0.49,1.81-0.89c0.13-0.01,0.27-0.05,0.4-0.13c2.59-1.61,4.67-3.96,6.91-6.05c0.27,0.08,0.58,0.03,0.86-0.23
				c0.69-0.63,1.3-1.31,1.88-2.02c0.26-0.18,0.53-0.36,0.81-0.53c0.18,0.1,0.4,0.14,0.66,0.1c1.19-0.19,2.19-0.61,3.16-1.18
				c0.19,0.03,0.39,0,0.59-0.14c4.11-2.91,5.68-7.91,9.8-10.84c1.25-0.89,2.78-1.96,3.38-3.44
				C229.16,224.39,229.43,222.48,228.28,221.94z"/>
			<path class="st9" d="M185.46,102.29c0.43,0.2,0.55,0.72,0.88,1.04c0.34,0.33,0.73,0.59,1.19,0.75c0.34,0.11,0.68,0.19,1.02,0.23
				c0.01,0.03,0.01,0.07,0.02,0.1c0.01,0.04,0.03,0.07,0.04,0.11c-0.21,0.05-0.4,0.17-0.5,0.4c-0.02,0.06-0.05,0.11-0.07,0.17
				c-0.24,0.06-0.49,0.14-0.76,0.26c-0.6,0.27-1.08,0.16-1.58,0c-0.32-0.26-0.78-0.36-1.32-0.33c-1.18,0.07-1.18,1.77,0,1.83
				c0,0,0,0,0.01,0c0,0.23,0.05,0.5,0.16,0.7c0.28,0.53,0.69,0.73,1.22,0.96c1.5,0.63,3.52,0.74,5.13,0.86
				c1.18,0.09,1.17-1.75,0-1.84c-0.26-0.02-2.01-0.17-3.29-0.41c0.53-0.18,1.06-0.34,1.53-0.2c0.28,0.06,0.52,0,0.7-0.11
				c0.1,0.04,0.2,0.08,0.3,0.11c0.07,0.02,0.2,0.04,0.34,0.06c0.13,0.04,0.27,0.06,0.4,0.05c0.55,0.07,1.2,0.16,1.33,0.36
				c0.67,0.96,2.24,0.07,1.58-0.93c-0.05-0.07-0.07-0.14-0.07-0.21c0.04-0.03,0.08-0.05,0.12-0.08c0.71-0.59,1.39-1.33,1.33-2.16
				c0.09,0.03,0.2,0.06,0.31,0.06c0.12,0,0.25,0,0.37,0c0.49,0,0.78-0.31,0.86-0.67c0.62,0,1.26-0.66,0.86-1.38
				c-0.37-0.67-1.38-0.83-2.04-1.03c-1.09-0.32-2.15-0.65-3.26-0.86c-1-0.2-2.66-0.59-3.63,0.01c-0.22-0.03-0.45-0.05-0.72-0.02
				c-0.46,0.05-0.83,0.45-0.9,0.87c-0.31-0.27-0.65-0.37-1.1-0.42C185.02,100.48,184.66,101.91,185.46,102.29z"/>
			<path class="st9" d="M168.71,104.35c0.1-0.04,0.19-0.06,0.29-0.08c0.03,0,0.23-0.03,0.21-0.03c0.1-0.01,0.19-0.04,0.28-0.07
				c0.02,0.05,0.04,0.1,0.07,0.14c-0.27,0.04-0.53,0.25-0.66,0.47c-0.32,0.54,0.01,1.3,0.61,1.47c0.21,0.06,0.4,0.03,0.59-0.04
				c0.01,0.01,0.03,0.01,0.04,0.02c0.07,0.04,0.13,0.06,0.2,0.08c0.15,0.18,0.37,0.3,0.63,0.31c0.76,0.02,1.51,0.18,2.27,0.09
				c0.4-0.05,0.75-0.18,1.09-0.4c0.07-0.04,0.13-0.1,0.2-0.17c0.09,0.03,0.19,0.05,0.29,0.03c0.22-0.03,0.43-0.06,0.65-0.11
				c0.9-0.18,0.8-1.27,0.18-1.66c-0.17-0.4-0.54-0.71-1.04-0.52c-0.59,0.22-0.9,0.63-1.4,0.96c-0.17,0.11-0.42,0.14-0.7,0.13
				c-0.25-0.42-0.4-0.85-0.63-1.2c-0.02-0.07-0.06-0.13-0.1-0.2c1.13-0.05,1.11-1.83-0.05-1.83c-0.02,0-0.04,0-0.07,0
				c-0.04,0-0.07,0-0.11,0c-0.33,0-0.57,0.15-0.71,0.35c-0.13,0.02-0.26,0.05-0.38,0.09c-0.34-0.21-0.78-0.23-1.17-0.14
				c-0.46,0.1-0.92,0.38-1.31,0.64c-0.35,0.23-0.54,0.62-0.42,1.04C167.7,104.16,168.24,104.53,168.71,104.35z"/>
			<path class="st9" d="M177.23,105.85c0.01,0.01,0.02,0.02,0.04,0.04c0.25,0.25,0.61,0.31,0.93,0.21c0.06,0.23,0.17,0.45,0.3,0.64
				c0.31,0.46,1.03,0.65,1.44,0.19c0.02-0.02,0.02-0.04,0.04-0.05c0.18,0.04,0.36,0.02,0.53-0.05c-0.08,0.38,0.08,0.79,0.43,0.99
				c0.46,0.28,0.96,0.31,1.49,0.2c0.49-0.1,0.77-0.67,0.64-1.13c-0.14-0.5-0.64-0.74-1.13-0.64c0.17-0.03-0.18-0.01,0.03,0.02
				c-0.02,0-0.04,0-0.05,0c-0.01-0.01-0.03-0.02-0.05-0.03c-0.2-0.12-0.42-0.14-0.64-0.1c0.19-0.38,0.22-0.82-0.05-1.19
				c-0.33-0.47-0.84-0.69-1.41-0.65c-0.36,0.03-0.68,0.22-0.83,0.53c-0.07,0.01-0.13,0.03-0.19,0.05c-0.04-0.1-0.1-0.19-0.18-0.27
				c-0.01-0.01-0.02-0.02-0.04-0.04c-0.35-0.35-0.94-0.35-1.3,0C176.88,104.91,176.88,105.5,177.23,105.85z"/>
			<path class="st9" d="M181.09,103.4c0.45,0.23,0.99,0.12,1.26-0.33c0.04-0.06,0.06-0.13,0.08-0.2c0,0.03-0.01,0.07-0.01,0.1
				c0,0.41,0.23,0.68,0.56,0.82c-0.01,0.42,0.27,0.78,0.67,0.91c0.02,0.01,0.03,0.01,0.04,0.01c0.37,0.22,0.81,0.24,1.15-0.1
				c0.18-0.18,0.28-0.47,0.26-0.74c0.03-0.04,0.08-0.07,0.1-0.11c0.24-0.42,0.11-1.02-0.33-1.26c-0.49-0.26-0.99-0.39-1.54-0.46
				c-0.41-0.05-0.76,0.29-0.87,0.67c0.04-0.36-0.11-0.74-0.44-0.91c-0.17-0.09-0.34-0.18-0.51-0.27c-0.08-0.05-0.16-0.1-0.24-0.16
				c0.13,0.09-0.08-0.1-0.11-0.13c-0.31-0.39-0.97-0.32-1.3,0c-0.38,0.38-0.31,0.91,0,1.3C180.17,102.94,180.66,103.19,181.09,103.4
				z"/>
			<path class="st9" d="M174.77,103.2c0.14,0.03,0.28,0.04,0.42,0.07c0.44,0.12,0.9-0.11,1.08-0.52c0.09,0,0.17-0.01,0.26-0.04
				c0.07-0.03,0.15-0.05,0.22-0.07c0.47-0.17,0.78-0.62,0.64-1.13c-0.12-0.45-0.66-0.81-1.13-0.64c-0.07,0.03-0.15,0.05-0.22,0.07
				c-0.26,0.1-0.48,0.28-0.59,0.52c-0.03,0-0.06-0.01-0.09-0.01c-0.11-0.04-0.22-0.06-0.34-0.05c0,0-0.01,0-0.01,0
				c-0.41,0.05-0.77,0.25-0.88,0.67C174,102.54,174.29,103.08,174.77,103.2z"/>
			<path class="st9" d="M227.57,118.49c-1.95-2.91-3.9-5.31-6.83-7.31c-1.48-1.01-3.72-2.67-5.73-2.78
				c-4.29-3.52-10.33-6.43-15.96-5.64c-0.74,0.1-0.8,1.08-0.4,1.53c-0.06,0.21-0.12,0.41-0.18,0.62c-0.99-0.35-1.62,1.19-0.71,1.68
				c0.03,0.07,0.06,0.14,0.09,0.21c-0.09,0.29-0.05,0.54,0.08,0.72c0.03,0.13,0.1,0.27,0.21,0.39c2.45,2.79,7.08,0.84,9.56,4.2
				c0.98,1.33,1.03,3.15,2.31,4.31c0.26,0.24,0.6,0.46,0.88,0.67c0.39,0.28,0.76,0.57,1.13,0.87c0.08,0.15,0.16,0.24,0.23,0.29
				c-0.23,0.29-0.3,0.7-0.09,1.03c0.39,0.61,1.14,1.02,1.69,1.55c0.02,0.05,0.04,0.1,0.07,0.15c0.08,0.13,0.15,0.26,0.23,0.4
				c0.08,0.15,0.19,0.25,0.3,0.32c0.03,0.09,0.06,0.19,0.07,0.3c-0.22,0.13-0.4,0.36-0.47,0.61c0,0.01-0.01,0.01-0.01,0.02
				c-0.41,0.85-0.34,1.5,0.03,2.38c0.59,1.39,1.03,2.83,1.62,4.21c0.76,1.75,1.96,2.56,3.23,3.91c1.04,1.09,3.31,4.16,5.2,3.52
				c2.39-0.81,1.54-4.01,1.81-5.99c0.1-0.74,2.09-1.71,2.61-2.47c0.89-1.3,2.53-1.85,3.17-3.26
				C232.73,122.74,228.55,119.95,227.57,118.49z"/>
			<path class="st9" d="M236.95,130.72c-0.04-0.12-0.11-0.24-0.21-0.34c-0.38-0.37-0.76-0.6-1.3-0.64c-0.5-0.04-0.92,0.45-0.92,0.92
				c0,0.48,0.35,0.81,0.79,0.9c0.04,0.04,0.09,0.08,0.13,0.12c0.18,0.17,0.41,0.26,0.64,0.26c0.07,0.38,0.35,0.72,0.7,0.78
				c0.04,0.06,0.08,0.12,0.14,0.16c0.93,0.74,1.87,1.71,3.1,1.91c0.69,0.11,1.58-0.62,1.04-1.35
				C240.19,132.28,238.63,130.06,236.95,130.72z"/>
			<path class="st9" d="M183.67,127.67c-1.18,0-1.18,1.84,0,1.84C184.86,129.5,184.86,127.67,183.67,127.67z"/>
			<path class="st9" d="M186.95,130.27c1.18,0,1.18-1.83,0-1.83C185.77,128.43,185.77,130.27,186.95,130.27z"/>
			<path class="st9" d="M189.95,126.87c-1.18,0-1.18,1.83,0,1.83S191.14,126.87,189.95,126.87z"/>
			<path class="st9" d="M183.58,140.37c0.33,0.25,0.79,0.25,1.17,0.15c0.48-0.12,0.77-0.65,0.64-1.13c-0.12-0.44-0.54-0.7-0.98-0.66
				c-0.4-0.21-0.95,0.02-1.16,0.38C182.97,139.59,183.18,140.07,183.58,140.37z"/>
			<path class="st9" d="M251.53,152.33c-0.06,0.3,0,0.63,0.25,0.82c0.74,0.59,0.94,1.56,1.07,2.46c0.07,0.5,0.69,0.76,1.13,0.64
				c0.11-0.03,0.19-0.08,0.27-0.14c0.31-0.22,0.42-0.6,0.37-0.99c-0.17-1.19-0.56-2.49-1.54-3.27c-0.11-0.09-0.24-0.16-0.37-0.2
				c-0.32-0.11-0.66-0.07-0.93,0.2c0,0,0,0.01-0.01,0.01c0.01-0.06,0.01-0.12,0.01-0.18c-0.07-2.41-1.06-4.51-1.94-6.71
				c-0.43-1.09-2.21-0.61-1.77,0.49c0.81,2.02,1.81,4,1.88,6.22C249.97,152.58,251.04,152.79,251.53,152.33z"/>
			<path class="st9" d="M254.45,164.71c-0.22,0.09-0.4,0.28-0.46,0.6c-0.5,2.85,0.12,6.41,1.73,8.83c0.48,0.72,1.74,0.5,1.71-0.46
				c-0.04-1.45-0.05-2.89-0.19-4.33c-0.14-1.49-0.9-2.82-1.01-4.29c-0.07-0.95-1.17-1.21-1.71-0.46
				C254.49,164.63,254.47,164.67,254.45,164.71z"/>
			<path class="st9" d="M258.06,185.48c-0.12-1.02-0.26-2.03-0.31-3.05c-0.03-0.46-0.03-0.92-0.02-1.39
				c0.04-0.72,0.06-1.45,0.08-2.17c0.03-0.68,0.04-1.36,0.01-2.05c0-0.05-0.01-0.1-0.02-0.14c0.02-0.1,0.04-0.2,0.05-0.3
				c0.17-1.16-1.6-1.65-1.77-0.49c-0.61,4.07-2.27,7.7-3.79,11.49c-0.71,1.75-1.25,3.54-1.64,5.38c-0.29,1.4-0.24,2.9-0.46,4.32
				c-0.09,0.09-0.16,0.2-0.22,0.34c-0.71,1.9-1.51,3.61-1.42,5.67c0.04,0.92,0.51,1.87,0.85,2.71c0.56,1.37,0.56,3.05,0.6,4.52
				c0.02,0.73,1.03,1.31,1.57,0.65c1.04-1.28,1.97-2.28,2.67-3.59c0.25-0.46,0.48-0.97,0.67-1.54c1.03-3.06,1.54-6.3,2.14-9.46
				c0.56-2.92,1.24-5.86,1.17-8.86C258.2,186.85,258.13,186.16,258.06,185.48z"/>
			<path class="st9" d="M181.36,193.21c-1.48-0.45-2.88-0.68-4.16-1.61c-0.45-0.33-0.89-0.15-1.13,0.21
				c-0.62-0.46-1.23-0.93-1.99-1.15c-2.63-0.75-4.71-0.21-7.31-0.08c-1.18,0.06-1.18,1.89,0,1.83c2.95-0.15,5.31-1.04,8.09,0.75
				c2.25,1.45,3.56,1.77,6.26,1.84C182.18,195.04,182.34,193.5,181.36,193.21z"/>
			<path class="st9" d="M183.51,197.62c0.32-0.06,0.65-0.17,0.95-0.31c0.05,0.01,0.09,0.02,0.15,0.03c2,0.21,3.95-0.35,5.94-0.45
				c0.93-0.04,1.23-1.2,0.46-1.71c-1.8-1.19-4.43-1.14-6.5-0.93c-0.74,0.08-1.11,0.84-0.76,1.39c-0.23,0.1-0.49,0.16-0.73,0.2
				C181.86,196.06,182.35,197.83,183.51,197.62z"/>
			<path class="st9" d="M194.82,195.94c-0.36,0.13-0.6,0.13-0.99,0c-0.47-0.16-1,0.18-1.13,0.64c-0.14,0.5,0.17,0.97,0.64,1.13
				c0.63,0.21,1.34,0.23,1.96,0c0.47-0.17,0.78-0.62,0.64-1.13C195.82,196.12,195.29,195.76,194.82,195.94z"/>
			<path class="st9" d="M201.32,198.41c-0.49,0-0.93,0.42-0.92,0.92c0.01,0.63,0.15,1.19,0.39,1.76c0.19,0.46,0.87,0.56,1.26,0.33
				c0.47-0.28,0.52-0.79,0.33-1.26c-0.1-0.24-0.14-0.55-0.14-0.83C202.23,198.82,201.83,198.41,201.32,198.41z"/>
			<path class="st9" d="M177.17,195.9c-0.11-0.05-0.24-0.08-0.38-0.08c-0.01,0-0.01,0-0.03,0c-0.03-0.01-0.06-0.01-0.09-0.02
				c-0.49-0.08-0.98,0.12-1.13,0.64c-0.13,0.48,0.16,1,0.64,1.13c0.11,0.03,0.22,0.05,0.33,0.06c0.56,0.1,1.12,0.24,1.7,0.29
				c0.5,0.04,0.92-0.45,0.92-0.92c0-0.53-0.42-0.87-0.92-0.92C177.86,196.05,177.52,195.97,177.17,195.9z"/>
			<path class="st9" d="M178.25,184.64c-0.01,0-0.01-0.01-0.02-0.01c0,0,0,0,0,0c-0.34-0.13-0.68-0.27-1.02-0.4
				c-0.47-0.19-1.01,0.2-1.13,0.64c-0.14,0.52,0.18,0.94,0.64,1.13c0.35,0.14,0.7,0.28,1.06,0.42l0,0c0,0,0,0,0,0
				c0.97,0.35,1.63-1.22,0.7-1.68c-0.07-0.03-0.15-0.06-0.22-0.09l0,0C178.26,184.64,178.26,184.64,178.25,184.64z"/>
			<path class="st9" d="M176.37,189.48c0.46,0.27,0.96,0.08,1.26-0.33c0.02-0.03,0.04-0.07,0.06-0.11c0.05-0.07,0.09-0.15,0.12-0.24
				c0.07-0.2,0.06-0.38,0.03-0.59c-0.14-0.79-1.33-0.89-1.68-0.22c-0.04,0.08-0.07,0.16-0.12,0.23
				C175.74,188.63,175.97,189.24,176.37,189.48z"/>
			<path class="st9" d="M182.86,191.75c1.18,0,1.18-1.83,0-1.83C181.68,189.91,181.68,191.75,182.86,191.75z"/>
		</g>
		<g>
			<path class="st10" d="M172.52,108.26c0,0-0.31-0.19-0.67-0.05c-0.93,0.36-1.65,0.9-2.16,1.54c-0.42,0.18-0.86,0.25-1.32,0.05
				c-1.04-0.46-0.84-1.43-1.06-2.27c-0.22-0.85-0.98-1.34-1.77-1.56c-2.12-0.59-4.57,1.19-6.55,1.95c-0.06,0.02-0.12,0.04-0.18,0.06
				c-0.08,0.03-0.15,0.06-0.22,0.08c0,0,0,0,0,0.01c-0.07,0.03-0.15,0.05-0.22,0.09c-0.96,0.42-0.27,1.99,0.71,1.68
				c0.11-0.04,0.22-0.08,0.33-0.12c0.6-0.18,1.19-0.24,1.78-0.2c-0.28,0.95-0.21,1.82,0.17,2.63c-0.23-0.04-0.46-0.09-0.68-0.15
				c-0.53-0.15-1.23,0.28-1.16,0.88c0.32,2.9,2.72,2.66,5.02,2.59c-0.12,0.26-0.25,0.52-0.38,0.78c-0.2,0.21-0.39,0.44-0.57,0.68
				c-0.15-0.01-0.29,0.02-0.43,0.1c-1.69-0.33-3.3-0.49-5.05-0.26c0,0-0.01,0-0.01,0c0,0,0,0,0,0c-0.08,0.01-0.16,0.02-0.24,0.03
				c-0.11,0.02-0.2,0.05-0.28,0.09c-0.01,0-0.02,0-0.02-0.01c-0.01-0.01-0.02-0.03-0.03-0.04c0.2-0.28,0.4-0.57,0.64-0.85
				c0.27-0.3,0.38-0.75,0.14-1.11c-1.06-1.64-2.49-2.33-4.25-2.29c-0.1-0.15-0.19-0.31-0.26-0.48c-0.22-0.41-0.56-0.52-0.88-0.45
				c-0.01-0.07-0.02-0.14-0.04-0.21c-0.12-0.49-0.65-0.76-1.13-0.64c-1.92,0.5-3.55,0.59-5.14,0.34c-0.16-0.13-0.37-0.21-0.58-0.23
				c-0.22-0.02-0.43-0.03-0.63-0.04c-0.87-0.23-1.74-0.57-2.66-1c-0.02-0.23-0.06-0.45-0.09-0.67c0.76-0.57,0.17-1.88-0.8-1.61
				c-0.22,0.06-0.43,0.12-0.65,0.18c-0.22,0.04-0.43,0.11-0.64,0.18c-3.76,1.06-7.69,2.3-10.47,5.11c-0.18,0.18-0.25,0.42-0.24,0.65
				c-0.38,0.36-0.78,0.69-1.19,1.01c-0.27-0.32-0.74-0.47-1.14-0.21c-1.06,0.68-2.11,1.37-3.16,2.07c-0.13-0.03-0.26-0.02-0.4,0.02
				c-0.41,0.13-0.68,0.38-0.99,0.67c-0.43,0.42-0.32,0.96,0.03,1.28c-4.13,2.29-7.96,5.42-9.9,9.77c-0.01,0.02-0.02,0.04-0.03,0.05
				c0,0,0.01,0,0.01,0c-0.03,0.07-0.07,0.14-0.1,0.22c-0.21,0.49,0.09,0.89,0.5,1.05c-0.38,0.5-0.76,1-1.13,1.5
				c-0.71,0.95,0.89,1.86,1.58,0.93c0.83-1.11,1.66-2.19,2.42-3.31c0.31,0.21,0.74,0.23,1.08-0.14c0.13-0.14,0.26-0.27,0.39-0.41
				c0.28,0.24,0.71,0.32,1.11,0.05c0.28,0.16,0.65,0.21,0.94,0.06c0.34-0.16,0.68-0.33,1.02-0.5c0.15,0.12,0.33,0.2,0.55,0.19
				c0.06,0,0.13,0,0.19,0c-0.49,0.9,0.74,1.68,1.48,1.05c0.13-0.12,0.26-0.24,0.38-0.36c0.06,0.21,0.13,0.43,0.2,0.64
				c-0.05,0.99-0.08,1.97-0.09,2.96c0,0,0,0,0,0.01c-0.19,0.06-0.36,0.2-0.47,0.45c-0.03,0.07-0.06,0.15-0.09,0.22l0,0
				c0,0,0,0.01,0,0.01c-0.39,0.9-0.73,1.8-1.02,2.75c-0.09,0.3,0.01,0.59,0.19,0.81c-0.42,0.16-0.71,0.67-0.63,1.14
				c0.04,0.4,0.08,0.81,0.11,1.21c0.01,0.34,0.23,0.62,0.52,0.78c-0.01,0.05-0.02,0.1-0.03,0.15c-0.01,0.01-0.02,0.01-0.04,0.02
				c-0.34,0.17-0.56,0.68-0.42,1.04c0.07,0.18,0.14,0.4,0.21,0.64c-0.03,0.24-0.07,0.48-0.1,0.72c-0.03,0.29,0.1,0.52,0.3,0.68
				c-0.05,0.71-0.06,1.42-0.01,2.14c-0.21,0.49-0.6,0.85-1.26,0.92c-0.63,0.07-1.23,0.74-0.79,1.38c2.5,3.66,0.63,7.07-1.28,10.49
				c-0.93,1.66-1.67,3.25-2.2,4.95c-0.35,0.1-0.62,0.39-0.58,0.84c0.03,0.33,0.07,0.66,0.11,0.99c-0.08,0.4-0.16,0.81-0.22,1.24
				c-0.33,2.34-0.17,4.77,1.17,6.77c0.75,1.13,2.08,1.74,3.21,2.51c0.66,1.09,1.08,2.24,1.45,3.41c-0.45,4.04,3.94,8.42,5.48,11.76
				c0.45,0.98,1.9,0.26,1.68-0.71c-0.58-2.51-2.13-4.39-3.46-6.55c-0.72-1.17-1.16-2.45-1.57-3.75c0.15,0.06,0.32,0.08,0.49,0.06
				c0.53,0.22,1.04,0.58,1.51,0.99c0.59,1.68,1.61,3.02,2.77,4.28c0.93,2.06,2.8,4.2,4.57,5.19c0.54,0.86,1,1.66,1.37,2.53
				c0,0.15,0.01,0.31,0.01,0.46c0.07,2.06,0.15,3.92,2.02,3.65c1.17,0.89,2.83,1.4,3.93,1.81c3.05,1.11,5.59,1.6,8.83,1.65
				c3.9,0.06,6.17,2.38,9.61,3.68c3.39,1.29,5.73,3.33,8.67,5.28c1.6,1.06,3.28,1.37,4.89,0.87v-2.38c-0.35-0.01-0.7-0.01-1.06,0
				c-1.77,0.06-3.14,0.04-4.01-2.05c-0.25-0.59,0.62-2.05,0.82-2.71c0.3-0.99-0.39-2.4-1.39-2.71c-1.83-0.57-3.59-0.14-5.39-1.04
				c-1.41-0.71,0.5-3.95,0.71-5.14c0.08-0.45-0.12-1.04-0.64-1.13c-2.43-0.41-3.7,0.07-5.8,1.46c-1.27,0.84-2.63,1.99-4.2,2.15
				c-2.59,0.26-4.35-1.52-5.03-3.82c-1.06-3.56-0.29-8.14,3.44-9.64c2.76-1.11,6.13-0.74,9.02-0.57c0.54,0.03,0.86-0.44,0.92-0.92
				c0.35-2.96,6.8-0.07,8.43,0.3c0.67,2.15,2.06,5.33,4.03,5.33c0.05,0,0.1-0.02,0.15-0.02v-48.5c-1.56-0.8-2.96-1.81-3.94-3.29
				c-1.68-2.52,0.73-5.1,3.94-7.12v-10.67c-0.81,0.62-3.06,0.56-4.67,0.55c-0.19-0.63-0.37-1.26-0.56-1.89
				c0.19,0.11,0.42,0.14,0.68,0.09c1.07-0.2,2.14-0.38,3.2-0.58c0.75-0.14,0.79-1.05,0.4-1.53c-0.27-0.64-0.36-1.21-0.3-1.7
				c0.25-0.53,0.56-1.02,1.03-1.52c0.1-0.11,0.21-0.34,0.21-0.34v-0.52V108.26z"/>
			<path class="st10" d="M171.15,223.94c-0.26,0.47-0.08,0.96,0.33,1.26c0.05,0.04,0.1,0.07,0.16,0.11
				c0.13,0.33,0.43,0.58,0.83,0.57c0.01,0.01,0.03,0.02,0.04,0.03v-7.97c-0.45,0.66-0.73,1.29-0.96,2.09
				C171.1,221.54,172.1,222.25,171.15,223.94z"/>
			<path class="st10" d="M168.71,104.35c0.1-0.04,0.19-0.06,0.29-0.08c0.03,0,0.23-0.03,0.21-0.03c0.1-0.01,0.19-0.04,0.29-0.07
				c0.02,0.05,0.04,0.1,0.07,0.14c-0.27,0.04-0.53,0.25-0.66,0.47c-0.32,0.54,0.01,1.3,0.61,1.47c0.21,0.06,0.4,0.03,0.59-0.04
				c0.01,0.01,0.03,0.01,0.04,0.02c0.07,0.04,0.13,0.06,0.2,0.08c0.15,0.18,0.37,0.3,0.63,0.31c0.51,0.02,1.02,0.09,1.53,0.11v-1.79
				c-0.24-0.41-0.39-0.82-0.61-1.17c-0.03-0.07-0.06-0.13-0.1-0.2c0.34-0.02,0.57-0.19,0.71-0.42c0.17-0.3,0.17-0.69,0-0.99
				c-0.14-0.24-0.39-0.42-0.76-0.42c-0.02,0-0.04,0-0.07,0c-0.04,0-0.07,0-0.11,0c-0.33,0-0.57,0.15-0.71,0.36
				c-0.13,0.02-0.26,0.05-0.38,0.09c-0.34-0.21-0.78-0.23-1.17-0.14c-0.46,0.1-0.92,0.38-1.31,0.64c-0.35,0.23-0.54,0.62-0.42,1.04
				C167.7,104.16,168.24,104.53,168.71,104.35z"/>
			<path class="st10" d="M166.77,190.59c-1.18,0.06-1.18,1.89,0,1.83c2.09-0.11,3.88-0.58,5.74-0.21v-1.85
				C170.57,190.13,168.83,190.48,166.77,190.59z"/>
		</g>
	</g>
</g>
</svg>
